<svg width="36" height="32" viewBox="0 0 36 32" fill="none" xmlns="http://www.w3.org/2000/svg">
<path d="M25.5375 0.660889H11.0047C8.35032 0.66063 5.79421 1.63788 3.85014 3.39621C1.90607 5.15454 0.718139 7.56363 0.525126 10.1392C0.525126 10.1832 0.519591 10.229 0.517746 10.273C0.509442 10.4337 0.504828 10.5944 0.504828 10.7568V14.1679H7.11016V11.457C7.11045 10.5412 7.45563 9.65728 8.08044 8.97233C8.70524 8.28738 9.56635 7.84891 10.5009 7.73981L10.5831 7.73083C10.7231 7.71647 10.8639 7.70958 11.0047 7.71019C11.0721 7.71019 11.1385 7.71019 11.204 7.71557H25.4462C25.9516 7.71546 26.452 7.81218 26.919 8.00023C27.386 8.18829 27.8103 8.46398 28.1677 8.81157C28.5252 9.15916 28.8087 9.57184 29.0023 10.0261C29.1958 10.4803 29.2954 10.9671 29.2955 11.4588V14.237H35.9166V10.7559C35.9166 9.43001 35.6481 8.11707 35.1265 6.89211C34.6048 5.66714 33.8403 4.55415 32.8765 3.61671C31.9126 2.67926 30.7684 1.93572 29.5092 1.42856C28.25 0.921391 26.9004 0.660535 25.5375 0.660889ZM35.9166 17.7639V21.2424C35.9168 22.5684 35.6485 23.8814 35.1271 25.1065C34.6056 26.3316 33.8412 27.4448 32.8774 28.3824C31.9137 29.3201 30.7695 30.0638 29.5103 30.5711C28.251 31.0784 26.9014 31.3394 25.5385 31.3392H11.0047C8.35029 31.3393 5.79419 30.362 3.85001 28.6037C1.90583 26.8454 0.717652 24.4365 0.524204 21.8608C0.524204 21.8169 0.524205 21.7711 0.516823 21.7271C0.50852 21.5664 0.503906 21.4057 0.503906 21.2433V17.8322H7.10832V20.544C7.10858 21.4596 7.45363 22.3435 8.07825 23.0284C8.70286 23.7133 9.56375 24.1519 10.4982 24.2612C10.5249 24.2612 10.5526 24.2684 10.5803 24.2711C10.72 24.2862 10.8605 24.2937 11.001 24.2935C11.0675 24.2935 11.1348 24.2935 11.2003 24.2881H14.891V17.9794H21.5249V24.2863H25.4425C26.4633 24.2863 27.4422 23.8919 28.1641 23.1897C28.886 22.4876 29.2916 21.5353 29.2919 20.5422V17.7639H35.9166Z" fill="currentColor"/>
</svg>
