<svg width="24" height="24" viewBox="0 0 24 24" fill="none" xmlns="http://www.w3.org/2000/svg">
<path fill-rule="evenodd" clip-rule="evenodd" d="M11 4H14.5348C13.6506 5.52972 13.8628 7.5197 15.1716 8.82843C16.4803 10.1372 18.4703 10.3494 20 9.46525V13V16.2C20 17.8802 20 18.7202 19.673 19.362C19.3854 19.9265 18.9265 20.3854 18.362 20.673C17.7202 21 16.8802 21 15.2 21H7.8C6.11984 21 5.27976 21 4.63803 20.673C4.07354 20.3854 3.6146 19.9265 3.32698 19.362C3 18.7202 3 17.8802 3 16.2V8.8C3 7.11984 3 6.27976 3.32698 5.63803C3.6146 5.07354 4.07354 4.6146 4.63803 4.32698C5.27976 4 6.11984 4 7.8 4H11ZM7 12C6.44772 12 6 12.4477 6 13C6 13.5523 6.44772 14 7 14H15C15.5523 14 16 13.5523 16 13C16 12.4477 15.5523 12 15 12H7ZM7 16C6.44772 16 6 16.4477 6 17C6 17.5523 6.44772 18 7 18H13C13.5523 18 14 17.5523 14 17C14 16.4477 13.5523 16 13 16H7Z" fill="#0FAE7F"/>
<path d="M20.1213 3.87868C21.2929 5.05025 21.2929 6.94975 20.1213 8.12132C18.9497 9.29289 17.0503 9.29289 15.8787 8.12132C14.7071 6.94975 14.7071 5.05025 15.8787 3.87868C17.0503 2.70711 18.9497 2.70711 20.1213 3.87868Z" fill="#0FAE7F"/>
</svg>
