<svg width="25" height="24" viewBox="0 0 25 24" fill="none" xmlns="http://www.w3.org/2000/svg">
<path d="M11.25 4H8.05C6.36984 4 5.52976 4 4.88803 4.32698C4.32354 4.6146 3.8646 5.07354 3.57698 5.63803C3.25 6.27976 3.25 7.11984 3.25 8.8V16.2C3.25 17.8802 3.25 18.7202 3.57698 19.362C3.8646 19.9265 4.32354 20.3854 4.88803 20.673C5.52976 21 6.36984 21 8.05 21H15.45C17.1302 21 17.9702 21 18.612 20.673C19.1765 20.3854 19.6354 19.9265 19.923 19.362C20.25 18.7202 20.25 17.8802 20.25 16.2V13M13.25 17H7.25M15.25 13H7.25M20.3713 3.87868C21.5429 5.05025 21.5429 6.94975 20.3713 8.12132C19.1997 9.29289 17.3003 9.29289 16.1287 8.12132C14.9571 6.94975 14.9571 5.05025 16.1287 3.87868C17.3003 2.70711 19.1997 2.70711 20.3713 3.87868Z" stroke="#8B95AA" stroke-width="1.5" stroke-linecap="round" stroke-linejoin="round"/>
</svg>
