<svg width="20" height="20" viewBox="0 0 20 20" fill="none" xmlns="http://www.w3.org/2000/svg">
<path d="M6.74999 17.6841C5.59176 16.0312 4.9104 14.0202 4.9104 11.8489C4.9104 9.0369 7.18867 6.75778 9.99896 6.75778C12.8093 6.75778 15.0875 9.0369 15.0875 11.8489" stroke="currentColor" stroke-width="1.5" stroke-linecap="round" stroke-linejoin="round"/>
<path d="M6.75006 17.6842C5.59184 16.0313 4.91048 14.0203 4.91048 11.8489C4.91048 9.03693 7.18875 6.75781 9.99904 6.75781C12.8093 6.75781 15.0876 9.03693 15.0876 11.8489" stroke="currentColor" stroke-width="1.5" stroke-linecap="round" stroke-linejoin="round"/>
<path d="M15.3633 16.9264C15.2717 16.9315 15.1817 16.94 15.0892 16.94C12.279 16.94 10.0007 14.6609 10.0007 11.8489" stroke="currentColor" stroke-width="1.5" stroke-linecap="round" stroke-linejoin="round"/>
<path d="M15.3634 16.9265C15.2718 16.9316 15.1819 16.9401 15.0894 16.9401C12.2791 16.9401 10.0008 14.661 10.0008 11.849" stroke="currentColor" stroke-width="1.5" stroke-linecap="round" stroke-linejoin="round"/>
<path d="M11.0578 18.3333C8.89581 16.985 7.45588 14.5854 7.45588 11.8489C7.45588 10.4429 8.59544 9.30333 10.0006 9.30333C11.4057 9.30333 12.5453 10.4429 12.5453 11.8489C12.5453 13.2549 13.6849 14.3944 15.09 14.3944C16.4951 14.3944 17.6347 13.2549 17.6347 11.8489C17.6347 7.6309 14.2169 4.21222 10.0014 4.21222C5.786 4.21222 2.36816 7.6309 2.36816 11.8489C2.36816 12.789 2.47338 13.7046 2.66684 14.587" stroke="currentColor" stroke-width="1.5" stroke-linecap="round" stroke-linejoin="round"/>
<path d="M11.0578 18.3333C8.89581 16.985 7.45588 14.5854 7.45588 11.8489C7.45588 10.4429 8.59544 9.30336 10.0006 9.30336C11.4057 9.30336 12.5453 10.4429 12.5453 11.8489C12.5453 13.2549 13.6849 14.3945 15.09 14.3945C16.4951 14.3945 17.6347 13.2549 17.6347 11.8489C17.6347 7.63093 14.2169 4.21225 10.0014 4.21225C5.786 4.21225 2.36816 7.63093 2.36816 11.8489C2.36816 12.7891 2.47338 13.7046 2.66684 14.5871" stroke="currentColor" stroke-width="1.5" stroke-linecap="round" stroke-linejoin="round"/>
<path d="M17.1048 4.88593C15.3696 2.91483 12.8325 1.66666 10.0001 1.66666C7.1678 1.66666 4.63073 2.91483 2.89551 4.88593" stroke="currentColor" stroke-width="1.5" stroke-linecap="round" stroke-linejoin="round"/>
<path d="M17.1048 4.88593C15.3696 2.91483 12.8325 1.66666 10.0001 1.66666C7.1678 1.66666 4.63073 2.91483 2.89551 4.88593" stroke="currentColor" stroke-width="1.5" stroke-linecap="round" stroke-linejoin="round"/>
</svg>
