<svg width="25" height="24" viewBox="0 0 25 24" fill="none" xmlns="http://www.w3.org/2000/svg">
<path d="M14.2378 21H10.2378M18.2378 8C18.2378 6.4087 17.6057 4.88258 16.4805 3.75736C15.3552 2.63214 13.8291 2 12.2378 2C10.6465 2 9.12039 2.63214 7.99517 3.75736C6.86995 4.88258 6.23781 6.4087 6.23781 8C6.23781 11.0902 5.45828 13.206 4.58748 14.6054C3.85294 15.7859 3.48567 16.3761 3.49914 16.5408C3.51405 16.7231 3.55267 16.7926 3.69959 16.9016C3.83227 17 4.4304 17 5.62667 17H18.849C20.0452 17 20.6434 17 20.776 16.9016C20.923 16.7926 20.9616 16.7231 20.9765 16.5408C20.99 16.3761 20.6227 15.7859 19.8881 14.6054C19.0173 13.206 18.2378 11.0902 18.2378 8Z" stroke="currentColor" stroke-width="1.5" stroke-linecap="round" stroke-linejoin="round"/>
</svg>
