<svg width="19" height="18" viewBox="0 0 19 18" fill="none" xmlns="http://www.w3.org/2000/svg">
<path d="M17 15.75V14.25C17 12.8521 16.0439 11.6775 14.75 11.3445M12.125 2.46807C13.2244 2.91311 14 3.99098 14 5.25C14 6.50902 13.2244 7.58689 12.125 8.03193M13.25 15.75C13.25 14.3522 13.25 13.6533 13.0216 13.1019C12.7172 12.3669 12.1331 11.7828 11.3981 11.4784C10.8467 11.25 10.1478 11.25 8.75 11.25H6.5C5.10218 11.25 4.40326 11.25 3.85195 11.4784C3.11687 11.7828 2.53284 12.3669 2.22836 13.1019C2 13.6533 2 14.3522 2 15.75M10.625 5.25C10.625 6.90685 9.28185 8.25 7.625 8.25C5.96815 8.25 4.625 6.90685 4.625 5.25C4.625 3.59315 5.96815 2.25 7.625 2.25C9.28185 2.25 10.625 3.59315 10.625 5.25Z" stroke="currentColor" stroke-width="1.5" stroke-linecap="round" stroke-linejoin="round"/>
</svg>
