<svg width="20" height="21" viewBox="0 0 20 21" fill="none" xmlns="http://www.w3.org/2000/svg">
<path fill-rule="evenodd" clip-rule="evenodd" d="M18.3346 10.4998C18.3346 15.1022 14.6037 18.8332 10.0013 18.8332C5.39893 18.8332 1.66797 15.1022 1.66797 10.4998C1.66797 5.89746 5.39893 2.1665 10.0013 2.1665C14.6037 2.1665 18.3346 5.89746 18.3346 10.4998ZM14.2803 8.53033C14.5732 8.23744 14.5732 7.76256 14.2803 7.46967C13.9874 7.17678 13.5126 7.17678 13.2197 7.46967L8.75 11.9393L6.78033 9.96967C6.48744 9.67678 6.01256 9.67678 5.71967 9.96967C5.42678 10.2626 5.42678 10.7374 5.71967 11.0303L8.21967 13.5303C8.51256 13.8232 8.98744 13.8232 9.28033 13.5303L14.2803 8.53033Z" fill="#3AAB53"/>
</svg>
