<svg width="138" height="93" viewBox="0 0 138 93" fill="none" xmlns="http://www.w3.org/2000/svg">
<path d="M131.844 19.0231H42.8966C39.5464 19.0231 36.8306 21.7389 36.8306 25.089V86.3155C36.8306 89.6656 39.5464 92.3814 42.8966 92.3814H131.844C135.194 92.3814 137.91 89.6656 137.91 86.3155V25.089C137.91 21.7389 135.194 19.0231 131.844 19.0231Z" fill="#FF725E"/>
<path d="M137.91 25.0888C137.91 25.0888 137.91 25.0158 137.91 24.8697C137.903 24.6517 137.882 24.4344 137.847 24.2193C137.725 23.3725 137.421 22.5621 136.957 21.8437C136.616 21.3152 136.199 20.8404 135.718 20.435C135.132 19.954 134.461 19.586 133.739 19.3498C133.545 19.2837 133.339 19.2454 133.134 19.1863C132.929 19.1272 132.71 19.1202 132.491 19.0855L131.819 19.0542H128.07L91.8029 19.082H66.76H52.8056H43.6545C43.0369 19.0572 42.4184 19.0922 41.8075 19.1863C40.5775 19.4121 39.4503 20.0208 38.5867 20.9254C38.1507 21.376 37.7901 21.8939 37.5189 22.4593C37.2394 23.0244 37.056 23.6321 36.9763 24.2575C36.9163 24.8933 36.8966 25.5322 36.9172 26.1705V35.9755C36.9172 41.2763 36.9172 46.6825 36.9172 52.1943V86.2805C36.9193 87.7353 37.4482 89.1401 38.4059 90.2352C39.3505 91.324 40.6604 92.0303 42.0893 92.2212C42.8017 92.2828 43.5171 92.3026 44.2318 92.2803H99.2428H127.99H131.336C131.882 92.2971 132.428 92.261 132.967 92.1725C133.497 92.0705 134.011 91.8974 134.494 91.6577C134.734 91.5399 134.966 91.4075 135.19 91.2612C135.407 91.1082 135.616 90.9433 135.816 90.7673C136.408 90.2464 136.891 89.6127 137.235 88.9032C137.58 88.1938 137.779 87.4228 137.823 86.6352C137.858 82.4614 137.823 78.4476 137.844 74.6216C137.844 59.3176 137.868 46.9214 137.875 38.3581C137.875 34.0764 137.875 30.7548 137.892 28.4974C137.892 27.374 137.892 26.5149 137.892 25.934C137.892 25.3531 137.892 25.061 137.892 25.061C137.892 25.061 137.892 25.3566 137.892 25.934C137.892 26.5114 137.892 27.374 137.892 28.4974C137.892 30.7548 137.892 34.0625 137.91 38.3581C137.91 46.9214 137.91 59.3106 137.938 74.6216C137.938 78.4476 137.962 82.4579 137.938 86.6422C137.879 87.7146 137.538 88.7524 136.95 89.6508C136.656 90.1023 136.306 90.5138 135.906 90.8751C135.702 91.0557 135.487 91.2241 135.263 91.3795C135.039 91.5286 134.807 91.6645 134.567 91.7864C134.073 92.0337 133.548 92.2116 133.005 92.3151C132.458 92.4076 131.902 92.4449 131.346 92.4264H128H99.2532H67.4835H44.2179C43.495 92.4488 42.7714 92.4279 42.051 92.3638C40.5789 92.1706 39.2287 91.4442 38.2563 90.3221C37.2744 89.1973 36.7311 87.7561 36.7259 86.2631C36.7259 74.5799 36.7259 63.1784 36.7259 52.1769V35.9755C36.7259 33.3275 36.7259 30.7072 36.7259 28.1148V26.1775C36.7051 25.531 36.726 24.8839 36.7885 24.2401C36.8708 23.5975 37.06 22.9733 37.3485 22.3932C37.6265 21.8105 37.9977 21.2771 38.4476 20.8141C38.893 20.3561 39.4041 19.9669 39.9641 19.6594C40.527 19.3605 41.1322 19.1494 41.7588 19.0333L42.2284 18.9602L42.698 18.9359C43.0145 18.9185 43.324 18.9359 43.6336 18.9359H66.7392H91.7821L128.049 18.9672H131.781L132.459 19.002C132.679 19.0402 132.898 19.0646 133.106 19.1098C133.315 19.155 133.52 19.2072 133.715 19.2768C134.442 19.5161 135.118 19.8888 135.708 20.3759C136.191 20.7851 136.61 21.2646 136.95 21.7984C137.412 22.5229 137.712 23.3395 137.826 24.1914C137.862 24.4076 137.88 24.6262 137.882 24.8453C137.91 25.0158 137.91 25.0888 137.91 25.0888Z" fill="#263238"/>
<path d="M134.369 23.5438C135.059 23.4233 135.765 23.4233 136.456 23.5438C135.765 23.6644 135.059 23.6644 134.369 23.5438Z" fill="#263238"/>
<path d="M125.854 23.5438C127.271 23.4233 128.695 23.4233 130.112 23.5438C128.695 23.6644 127.271 23.6644 125.854 23.5438Z" fill="#263238"/>
<path d="M117.345 23.5439C118.76 23.4232 120.183 23.4232 121.598 23.5439C120.183 23.6645 118.76 23.6645 117.345 23.5439Z" fill="#263238"/>
<path d="M108.829 23.5438C110.245 23.4233 111.669 23.4233 113.086 23.5438C111.669 23.6644 110.245 23.6644 108.829 23.5438Z" fill="#263238"/>
<path d="M100.319 23.5439C101.734 23.4232 103.157 23.4232 104.573 23.5439C103.157 23.6645 101.734 23.6645 100.319 23.5439Z" fill="#263238"/>
<path d="M91.8045 23.5438C93.2211 23.4233 94.6453 23.4233 96.0618 23.5438C94.6453 23.6644 93.2211 23.6644 91.8045 23.5438Z" fill="#263238"/>
<path d="M83.2917 23.5439C84.7071 23.4232 86.1302 23.4232 87.5455 23.5439C86.1302 23.6645 84.7071 23.6645 83.2917 23.5439Z" fill="#263238"/>
<path d="M74.7773 23.5438C76.1939 23.4233 77.6181 23.4233 79.0346 23.5438C77.6181 23.6644 76.1939 23.6644 74.7773 23.5438Z" fill="#263238"/>
<path d="M66.2629 23.5438C67.6794 23.4233 69.1037 23.4233 70.5202 23.5438C69.1037 23.6644 67.6794 23.6644 66.2629 23.5438Z" fill="#263238"/>
<path d="M57.7533 23.5442C58.4556 23.4554 59.1641 23.4252 59.8715 23.4538C60.5823 23.4246 61.2943 23.4548 62.0001 23.5442C61.2945 23.6357 60.5823 23.666 59.8715 23.6347C59.1641 23.6654 58.4554 23.6351 57.7533 23.5442Z" fill="#263238"/>
<path d="M49.2373 23.5442C49.9431 23.4548 50.6551 23.4246 51.3659 23.4538C52.0768 23.4246 52.7888 23.4548 53.4946 23.5442C52.789 23.6357 52.0768 23.666 51.3659 23.6347C50.6551 23.666 49.9429 23.6357 49.2373 23.5442Z" fill="#263238"/>
<path d="M42.8955 25.6307C42.8039 24.9391 42.7736 24.2408 42.8051 23.5438L42.8955 23.4534H43.7059L44.3703 23.4743C44.5762 23.4667 44.7822 23.4878 44.9824 23.5369C44.7826 23.5884 44.5764 23.6106 44.3703 23.603L43.7059 23.6204H43.3164H42.8955L42.9859 23.5299C43.0161 24.2315 42.9858 24.9344 42.8955 25.6307Z" fill="#263238"/>
<path d="M42.8954 33.4329C42.8039 32.7868 42.7737 32.1335 42.805 31.4816C42.7738 30.831 42.804 30.1788 42.8954 29.5339C42.9847 30.179 43.015 30.831 42.9859 31.4816C43.0151 32.1335 42.9848 32.7866 42.8954 33.4329Z" fill="#263238"/>
<path d="M42.8962 41.2341C42.7756 39.9372 42.7756 38.632 42.8962 37.3351C43.0168 38.632 43.0168 39.9372 42.8962 41.2341Z" fill="#263238"/>
<path d="M42.8962 49.036C42.7756 47.738 42.7756 46.4316 42.8962 45.1335C43.0168 46.4316 43.0168 47.738 42.8962 49.036Z" fill="#263238"/>
<path d="M42.8962 56.8441C42.7756 55.546 42.7756 54.2396 42.8962 52.9415C43.0168 54.2396 43.0168 55.546 42.8962 56.8441Z" fill="#263238"/>
<path d="M42.8962 64.6362C42.7756 63.3393 42.7756 62.034 42.8962 60.7372C43.0168 62.034 43.0168 63.3393 42.8962 64.6362Z" fill="#263238"/>
<path d="M42.8962 72.4378C42.7756 71.1409 42.7756 69.8357 42.8962 68.5388C43.0168 69.8357 43.0168 71.1409 42.8962 72.4378Z" fill="#263238"/>
<path d="M42.8962 80.2387C42.7756 78.9418 42.7756 77.6365 42.8962 76.3396C43.0168 77.6365 43.0168 78.9418 42.8962 80.2387Z" fill="#263238"/>
<path d="M44.9827 86.2286C44.2909 86.318 43.5927 86.3482 42.8957 86.3191C42.7149 86.1382 42.8436 86.2669 42.8053 86.2252V85.8113C42.8053 85.6756 42.8053 85.5469 42.8053 85.4182C42.8053 85.1887 42.8053 84.9695 42.8053 84.7539C42.7953 84.5488 42.8176 84.3434 42.8714 84.1452C42.9206 84.3442 42.9417 84.5491 42.934 84.7539C42.934 84.9695 42.934 85.1887 42.9549 85.4182C42.9549 85.5469 42.9549 85.6756 42.9549 85.8113C42.9549 85.8773 42.9549 85.9469 42.9549 86.0165V86.2252C42.9131 86.1869 43.0453 86.3191 42.8644 86.1382C43.5718 86.1051 44.2807 86.1354 44.9827 86.2286Z" fill="#263238"/>
<path d="M53.3744 86.2289C52.6825 86.3177 51.9844 86.3479 51.2875 86.3193C50.5905 86.3479 49.8924 86.3177 49.2006 86.2289C49.8922 86.138 50.5905 86.1077 51.2875 86.1384C51.9844 86.1077 52.6827 86.138 53.3744 86.2289Z" fill="#263238"/>
<path d="M61.762 86.2289C61.0701 86.3177 60.372 86.3479 59.675 86.3193C58.9781 86.3479 58.28 86.3177 57.5881 86.2289C58.2798 86.138 58.9781 86.1077 59.675 86.1384C60.372 86.1077 61.0703 86.138 61.762 86.2289Z" fill="#263238"/>
<path d="M70.1521 86.2284C68.7564 86.349 67.353 86.349 65.9574 86.2284C67.353 86.1079 68.7564 86.1079 70.1521 86.2284Z" fill="#263238"/>
<path d="M78.5412 86.2284C77.1456 86.349 75.7422 86.349 74.3465 86.2284C75.7422 86.1079 77.1456 86.1079 78.5412 86.2284Z" fill="#263238"/>
<path d="M86.9296 86.2284C85.534 86.349 84.1305 86.349 82.7349 86.2284C84.1305 86.1079 85.534 86.1079 86.9296 86.2284Z" fill="#263238"/>
<path d="M95.3204 86.2284C93.9247 86.349 92.5213 86.349 91.1257 86.2284C92.5213 86.1079 93.9247 86.1079 95.3204 86.2284Z" fill="#263238"/>
<path d="M103.694 86.2284C102.299 86.349 100.895 86.349 99.4997 86.2284C100.895 86.1079 102.299 86.1079 103.694 86.2284Z" fill="#263238"/>
<path d="M112.099 86.2284C110.704 86.349 109.3 86.349 107.905 86.2284C109.3 86.1079 110.704 86.1079 112.099 86.2284Z" fill="#263238"/>
<path d="M120.487 86.2284C119.091 86.349 117.688 86.349 116.292 86.2284C117.688 86.1079 119.091 86.1079 120.487 86.2284Z" fill="#263238"/>
<path d="M128.881 86.2284C127.485 86.349 126.082 86.349 124.686 86.2284C126.082 86.1079 127.485 86.1079 128.881 86.2284Z" fill="#263238"/>
<path d="M135.162 86.2284C134.471 86.349 133.765 86.349 133.075 86.2284C133.765 86.1079 134.471 86.1079 135.162 86.2284Z" fill="#263238"/>
<g opacity="0.3">
<path d="M71.6958 59.7104C71.6958 59.7104 71.7167 63.1886 70.6524 65.2755C69.5881 67.3625 69.2611 68.1903 67.0351 68.9972C64.809 69.8041 36.8027 72.8823 36.8027 72.8823V63.4321L71.6958 59.7104Z" fill="black"/>
</g>
<g opacity="0.3">
<path d="M71.2055 46.5977C71.2055 46.5977 71.5255 43.0464 62.6179 41.7282C52.4303 40.2222 36.8306 38.3718 36.8306 38.3718V45.0881L71.2055 46.5977Z" fill="black"/>
</g>
<path d="M66.7329 43.3773H37.7561C35.0072 43.3773 32.7788 45.6057 32.7788 48.3545V61.3282C32.7788 64.077 35.0072 66.3054 37.7561 66.3054H66.7329C69.4817 66.3054 71.7101 64.077 71.7101 61.3282V48.3545C71.7101 45.6057 69.4817 43.3773 66.7329 43.3773Z" fill="#FF725E"/>
<path d="M37.7562 66.3019C37.7562 66.3019 37.6553 66.3019 37.4605 66.3019C37.1687 66.2907 36.8786 66.2511 36.5945 66.1837C36.1296 66.0789 35.683 65.9054 35.2693 65.6689C34.7026 65.3489 34.2049 64.9197 33.805 64.4063C33.2983 63.7626 32.9579 63.0041 32.8137 62.1977C32.7412 61.7377 32.7133 61.2718 32.7302 60.8064C32.7302 60.3264 32.7302 59.8256 32.7302 59.3073C32.7302 57.2378 32.7302 54.8831 32.7302 52.2779C32.7302 50.9736 32.7302 49.6136 32.7302 48.1876C32.7536 47.4358 32.945 46.6988 33.2905 46.0307C33.636 45.3626 34.1267 44.7804 34.7267 44.3268C35.3573 43.842 36.0961 43.5173 36.8797 43.3807C37.2773 43.3148 37.6802 43.2868 38.0831 43.2972H44.3439H66.7573C67.5123 43.2956 68.258 43.4635 68.9395 43.7886C69.621 44.1137 70.2207 44.5876 70.6946 45.1755C71.3221 45.9446 71.707 46.8828 71.8006 47.8711C71.8389 48.3615 71.825 48.838 71.8285 49.3145C71.8285 50.2675 71.8285 51.2124 71.8285 52.1492V57.6691C71.8285 58.5699 71.8285 59.4638 71.8285 60.3438C71.8285 60.789 71.8458 61.2203 71.8285 61.6655C71.8157 61.8861 71.789 62.1057 71.7485 62.3229C71.7011 62.5367 71.6431 62.748 71.5745 62.9559C71.2913 63.7702 70.8051 64.4988 70.1617 65.0727C69.5184 65.6467 68.7393 66.047 67.8981 66.2359C67.6972 66.2822 67.494 66.3182 67.2894 66.3437C67.0842 66.3611 66.879 66.368 66.6738 66.375H63.1434H54.6219L42.2813 66.3437L38.9248 66.3263H38.0553H37.7562C37.7562 66.3263 37.857 66.3263 38.0553 66.3263H38.9248L42.2813 66.3089L54.6219 66.2811H63.1434H65.4773C66.2703 66.2602 67.0807 66.3472 67.8598 66.1419C68.6664 65.9493 69.411 65.5554 70.0241 64.997C70.6372 64.4387 71.0988 63.734 71.3659 62.949C71.665 62.1455 71.6232 61.2725 71.6232 60.389V57.7143C71.6232 55.9126 71.6232 54.0692 71.6232 52.1944V49.3597C71.6232 48.8832 71.6232 48.3997 71.5989 47.9337C71.5052 46.9806 71.1339 46.076 70.5311 45.332C70.2277 44.9638 69.8768 44.6375 69.4876 44.3616C69.0834 44.0953 68.6445 43.8859 68.1833 43.739C67.7163 43.6029 67.2332 43.5304 66.7468 43.5233H44.3334H38.0727C37.678 43.513 37.2832 43.5398 36.8936 43.6033C36.1348 43.7348 35.4189 44.0474 34.8067 44.5146C34.2232 44.9542 33.7454 45.5187 33.4084 46.1669C33.0713 46.8151 32.8836 47.5305 32.8589 48.2606C32.8415 49.6762 32.8589 51.0432 32.8589 52.3475C32.8589 54.9526 32.8589 57.3074 32.8589 59.3769C32.8589 59.8951 32.8589 60.396 32.8589 60.876C32.8414 61.3353 32.867 61.7953 32.9354 62.2499C33.1023 63.1981 33.5409 64.0774 34.1978 64.7813C34.8547 65.4851 35.7018 65.9831 36.6362 66.215C36.9179 66.2854 37.2055 66.3296 37.4953 66.3472L37.7562 66.3019Z" fill="#263238"/>
<path d="M59.9818 64.0371C64.5844 64.0371 68.3155 60.3059 68.3155 55.7034C68.3155 51.1008 64.5844 47.3696 59.9818 47.3696C55.3792 47.3696 51.6481 51.1008 51.6481 55.7034C51.6481 60.3059 55.3792 64.0371 59.9818 64.0371Z" fill="#263238"/>
<path d="M62.1178 62.5107C62.8228 62.2492 63.4914 61.8985 64.1073 61.4673C64.7626 60.9867 65.3318 60.3987 65.7908 59.7282C66.3622 58.9146 66.7404 57.9813 66.8965 56.9994C67.0526 56.0175 66.9826 55.0129 66.6916 54.0622C66.4643 53.2819 66.1042 52.5465 65.6273 51.8884C65.1778 51.2868 64.6516 50.7466 64.0621 50.2814C64.0621 50.2814 64.1143 50.3023 64.1978 50.358C64.3265 50.4381 64.4507 50.5252 64.5699 50.6188C65.0079 50.9637 65.3985 51.3648 65.7316 51.8118C66.2316 52.4741 66.6108 53.2194 66.8516 54.0135C67.1609 54.9868 67.2384 56.019 67.0777 57.0275C66.9171 58.0361 66.5228 58.9931 65.9264 59.8221C65.4532 60.4993 64.8645 61.088 64.1873 61.5612C63.7327 61.8828 63.2366 62.1414 62.7126 62.3299C62.5717 62.3839 62.4277 62.4292 62.2813 62.4655C62.2302 62.4911 62.1747 62.5064 62.1178 62.5107Z" fill="#FAFAFA"/>
<g filter="url(#filter0_d_12_722)">
<path d="M104.022 18.4314L104.022 18.4315C104.303 21.4566 103.68 24.4971 102.231 27.1678C100.783 29.8386 98.5748 32.0194 95.8861 33.4341C93.1974 34.8488 90.1493 35.4337 87.128 35.1147C84.1066 34.7957 81.2479 33.5872 78.914 31.6422C76.58 29.6972 74.8758 27.1033 74.0172 24.189C73.1586 21.2747 73.1842 18.1711 74.0909 15.2714C74.9975 12.3717 76.7444 9.80633 79.1102 7.9002C81.476 5.99407 84.3543 4.83296 87.3805 4.56395L87.3805 4.56395C91.4255 4.19978 95.4496 5.45551 98.5696 8.05548C101.69 10.6554 103.65 14.3872 104.022 18.4314Z" fill="#FF725E" stroke="#263238" stroke-width="0.1"/>
<g opacity="0.3">
<path d="M100.388 18.3773C100.318 18.3773 100.224 17.8799 99.9563 16.986C99.5812 15.7534 99.018 14.5861 98.2868 13.5252C97.7821 12.8011 97.1988 12.1351 96.5477 11.5392C95.8031 10.8552 94.973 10.2707 94.0782 9.80009C93.5966 9.54625 93.0966 9.32884 92.5826 9.14967C92.0483 8.96172 91.5007 8.81406 90.9443 8.70794C90.3705 8.59779 89.7891 8.53152 89.2052 8.50969C88.6014 8.48912 87.9968 8.51353 87.3966 8.58272C86.7979 8.6571 86.2052 8.77332 85.6227 8.93054C85.0585 9.09274 84.5074 9.29738 83.9741 9.54271C82.9634 10.0069 82.026 10.6162 81.1915 11.3514C80.4338 12.0175 79.7651 12.7785 79.202 13.6157C78.7133 14.3501 78.3074 15.1363 77.9916 15.96C77.5333 17.1632 77.2657 18.4306 77.1986 19.7164C77.1464 20.6346 77.1777 21.1494 77.1047 21.1598C77.0316 21.1703 76.9064 20.6625 76.8473 19.7164C76.781 18.3713 76.965 17.0257 77.3899 15.7478C78.022 13.8257 79.1412 12.1002 80.6385 10.7392C81.5212 9.93052 82.5201 9.25873 83.6019 8.7462C84.1744 8.47555 84.7675 8.25108 85.3758 8.07491C86.0026 7.89564 86.6421 7.76425 87.2888 7.68188C87.9364 7.60813 88.5886 7.58255 89.24 7.60536C89.8734 7.63361 90.5036 7.71036 91.1252 7.83492C92.2976 8.07388 93.4277 8.48654 94.4782 9.05924C96.2563 10.0257 97.755 11.4345 98.8294 13.1496C99.5481 14.2889 100.048 15.5522 100.304 16.8747C100.45 17.8556 100.45 18.3773 100.388 18.3773Z" fill="black"/>
</g>
<g opacity="0.3">
<path d="M90.6804 26.6493L90.8926 28.6805L89.0769 28.8718L88.8717 26.8927C87.0631 26.9692 85.2822 26.5866 84.204 25.9119L84.9692 23.5919C86.0861 24.2106 87.3446 24.5282 88.6213 24.5136L88.3048 21.4841C86.2422 21.2024 83.9223 20.7676 83.651 18.1694C83.4493 16.246 84.677 14.4513 87.5083 13.8252L87.2996 11.8113L89.1152 11.6235L89.3204 13.5991C90.6258 13.5379 91.9272 13.7857 93.1186 14.3226L92.4473 16.639C91.5424 16.233 90.5658 16.0107 89.5743 15.9851L89.8943 19.0703C91.9569 19.3312 94.242 19.7659 94.5064 22.3328C94.7046 24.2319 93.4908 26.0093 90.6804 26.6493ZM88.0335 18.8164L87.7622 16.2391C86.8266 16.5556 86.4996 17.1225 86.5622 17.7208C86.6248 18.319 87.2057 18.646 88.0335 18.8164ZM91.6091 22.865C91.543 22.2285 90.9795 21.9398 90.1726 21.7485L90.4334 24.2528C91.3204 23.9606 91.6682 23.4458 91.6091 22.865Z" fill="black"/>
</g>
<path d="M77.0531 21.8717C77.0648 21.902 77.0729 21.9335 77.0775 21.9657C77.0775 22.0387 77.1053 22.1291 77.1262 22.2404C77.147 22.3517 77.1679 22.5152 77.1957 22.6856C77.2239 22.8897 77.2645 23.0918 77.3175 23.2908C77.8173 25.4588 78.9165 27.4426 80.4896 29.0159L81.0391 29.5168C81.133 29.5968 81.22 29.6872 81.3209 29.7672L81.6304 29.9968C81.8391 30.1498 82.0443 30.3203 82.2669 30.4629L82.9625 30.8837C83.9585 31.4463 85.0304 31.8622 86.1451 32.1185C88.558 32.6703 91.084 32.4376 93.3554 31.4541C94.4049 30.9989 95.3831 30.3944 96.2597 29.6594L96.8649 29.1203C97.0596 28.9394 97.2127 28.7342 97.404 28.5464C97.4909 28.4525 97.5814 28.3586 97.6648 28.2646C97.7483 28.1707 97.8214 28.0629 97.9013 27.9655C98.0509 27.7638 98.2005 27.569 98.35 27.3742C98.857 26.6275 99.2804 25.8274 99.6126 24.9882C100.093 23.7667 100.367 22.4737 100.423 21.1622C100.437 20.9572 100.437 20.7515 100.423 20.5466C100.423 20.3727 100.423 20.2196 100.423 20.0944C100.423 19.9692 100.423 19.8892 100.423 19.8161C100.42 19.7837 100.42 19.7511 100.423 19.7188C100.427 19.7499 100.427 19.7815 100.423 19.8127C100.423 19.8857 100.423 19.9796 100.444 20.0909C100.465 20.2022 100.444 20.3692 100.468 20.5466C100.484 20.7526 100.484 20.9596 100.468 21.1657C100.44 22.4881 100.182 23.7955 99.7065 25.0299C99.382 25.8873 98.9595 26.7043 98.4474 27.4647L98.0127 28.0733C97.9327 28.1742 97.8596 28.282 97.7761 28.3794L97.5118 28.6681C97.3344 28.8594 97.164 29.0646 96.9657 29.249L96.357 29.802C95.4697 30.5508 94.4786 31.167 93.4145 31.6315C91.1144 32.6311 88.5546 32.8676 86.1103 32.3063C84.9784 32.0438 83.891 31.6173 82.8826 31.0402L82.1869 30.6124C81.9608 30.4663 81.7556 30.2924 81.5435 30.1394L81.2339 29.9029C81.133 29.8229 81.0426 29.729 80.9452 29.6455L80.3817 29.1168C79.7427 28.4632 79.1792 27.7398 78.7018 26.9603C78.0096 25.8324 77.5178 24.5933 77.2479 23.2978C77.1983 23.0977 77.1634 22.8943 77.1436 22.6891C77.1227 22.5152 77.1053 22.3622 77.0879 22.237C77.0705 22.1117 77.067 22.0317 77.0566 21.9587C77.0528 21.9299 77.0516 21.9008 77.0531 21.8717Z" fill="#263238"/>
</g>
<path d="M29.02 53.4177L29.02 53.4178C29.4423 56.268 29.0094 59.1795 27.776 61.7835C26.5426 64.3875 24.5642 66.5669 22.0914 68.0459C19.6185 69.5248 16.7624 70.2367 13.8848 70.0914C11.0071 69.9461 8.23723 68.9502 5.92593 67.2297C3.61463 65.5092 1.86584 63.1416 0.90099 60.4266C-0.0638598 57.7116 -0.201372 54.7713 0.505869 51.9781C1.21311 49.1849 2.73329 46.6644 4.87393 44.7357C7.01456 42.807 9.67937 41.5569 12.5309 41.1437L12.531 41.1437C14.4196 40.8668 16.3443 40.9646 18.1951 41.4316C20.0459 41.8986 21.7866 42.7256 23.3178 43.8654C24.849 45.0051 26.1406 46.4354 27.119 48.0744C28.0974 49.7134 28.7434 51.529 29.02 53.4177Z" fill="#FF725E" stroke="#263238" stroke-width="0.1"/>
<g opacity="0.3">
<path d="M25.5763 53.5559C25.5102 53.5559 25.392 53.0933 25.0928 52.276C24.6764 51.1263 24.0826 50.049 23.3329 49.083C22.8195 48.426 22.2364 47.8266 21.5938 47.2952C20.8508 46.691 20.0323 46.1859 19.1591 45.7926C18.69 45.5774 18.2051 45.3983 17.7087 45.257C17.1933 45.1003 16.6665 44.984 16.133 44.9092C15.5821 44.8344 15.0263 44.8019 14.4705 44.8118C13.8979 44.8264 13.3272 44.8822 12.7627 44.9787C12.1986 45.0814 11.6429 45.2255 11.1001 45.41C10.5745 45.5938 10.063 45.8159 9.56971 46.0744C9.09368 46.325 8.63782 46.6123 8.20626 46.9335C7.78959 47.2385 7.39553 47.5733 7.02716 47.9352C5.74629 49.1942 4.79127 50.7461 4.24461 52.4568C3.87341 53.6218 3.68681 54.8376 3.69158 56.0602C3.69158 56.9298 3.74375 57.4167 3.69158 57.4272C3.63941 57.4376 3.47593 56.968 3.37507 56.0776C3.23788 54.807 3.34172 53.522 3.68114 52.2899C3.91142 51.4327 4.24303 50.606 4.66895 49.8273C5.16449 48.9324 5.77744 48.1077 6.49152 47.3752C6.87789 46.9776 7.29418 46.6101 7.73671 46.2761C8.19722 45.9245 8.68449 45.6093 9.19407 45.3335C9.72226 45.0478 10.2724 44.8048 10.8392 44.6066C12.0085 44.1935 13.2375 43.975 14.4774 43.9596C15.0778 43.9532 15.6778 43.9927 16.2722 44.0779C16.8462 44.1594 17.4127 44.2873 17.966 44.4605C18.4961 44.6227 19.0134 44.8238 19.5138 45.0622C21.2473 45.8853 22.7397 47.1406 23.8476 48.7074C24.5867 49.7508 25.1267 50.9217 25.4407 52.1612C25.6215 53.062 25.625 53.549 25.5763 53.5559Z" fill="black"/>
</g>
<g opacity="0.3">
<path d="M16.8193 61.8893L17.1253 63.8023L15.4175 64.0771L15.1184 62.2127C13.4106 62.3797 11.7028 62.1119 10.6455 61.5171L11.2507 59.2806C12.3399 59.8145 13.5497 60.0543 14.7602 59.9763L14.3045 57.1242C12.3324 56.9676 10.1133 56.672 9.72028 54.2303C9.43159 52.4182 10.4994 50.6513 13.1498 49.9139L12.8437 48.0148L14.555 47.7435L14.8506 49.6043C16.0847 49.4783 17.3312 49.6451 18.4888 50.0913L17.9705 52.3312C17.0915 51.993 16.1538 51.8334 15.2123 51.8617L15.6784 54.766C17.6471 54.9051 19.8314 55.2042 20.2174 57.6146C20.5026 59.3885 19.4488 61.1345 16.8193 61.8893ZM13.9011 54.6094L13.5115 52.1747C12.6385 52.5225 12.3602 53.079 12.4507 53.6425C12.5411 54.206 13.1115 54.4912 13.9011 54.6094ZM17.501 58.258C17.4036 57.6598 16.8575 57.4128 16.0819 57.2737L16.4575 59.6319C17.2818 59.3224 17.5879 58.8041 17.501 58.258Z" fill="black"/>
</g>
<path d="M3.61212 57.1324C3.62256 57.1607 3.6307 57.1898 3.63647 57.2194C3.65386 57.2855 3.67473 57.3724 3.69907 57.4768L3.78951 57.8942C3.82684 58.0859 3.87562 58.2752 3.93559 58.4611C4.28116 59.6554 4.82304 60.7838 5.53903 61.8002C6.03288 62.4992 6.60337 63.1409 7.23986 63.7132L7.78594 64.1584C7.87985 64.2314 7.97028 64.3114 8.06767 64.381L8.37375 64.5827C8.57896 64.7149 8.7807 64.8644 8.99982 64.9897L9.67459 65.3375C10.6473 65.818 11.6839 66.1565 12.7528 66.3427C13.9041 66.5248 15.0759 66.5377 16.231 66.3809C17.3816 66.195 18.4992 65.8435 19.5492 65.3375C20.5174 64.8502 21.411 64.2271 22.203 63.4871L22.7456 62.941C22.923 62.7601 23.0691 62.5584 23.2291 62.3741L23.4621 62.0923C23.5386 61.9949 23.6012 61.8941 23.6673 61.7967C23.803 61.5984 23.9317 61.4036 24.0638 61.2123C24.5039 60.4789 24.8631 59.6999 25.1351 58.8889C25.5264 57.7081 25.718 56.4703 25.7021 55.2264C25.7089 55.0313 25.7007 54.8359 25.6777 54.6421C25.6777 54.4786 25.6534 54.336 25.6464 54.2142C25.6395 54.0925 25.6464 54.0229 25.629 53.9499C25.6244 53.9199 25.6244 53.8894 25.629 53.8595C25.6397 53.8885 25.6455 53.919 25.6464 53.9499C25.6464 54.0195 25.6673 54.1064 25.6812 54.2108C25.6951 54.3151 25.7125 54.4751 25.7334 54.6386C25.7599 54.8334 25.7727 55.0298 25.7716 55.2264C25.8167 56.4805 25.6425 57.7329 25.2568 58.9272C24.9921 59.7536 24.6339 60.5472 24.189 61.2923L23.796 61.8836C23.7264 61.9845 23.6638 62.0888 23.5873 62.1862L23.3543 62.4714C23.1943 62.6627 23.0447 62.868 22.8673 63.0523C22.69 63.2366 22.5195 63.421 22.3178 63.6053C21.5166 64.3628 20.6098 65.0002 19.6257 65.4975C17.4951 66.5671 15.0773 66.9243 12.7284 66.5166C11.6401 66.3218 10.5857 65.9703 9.59807 65.4731L8.90243 65.1009C8.67983 64.9757 8.4781 64.8227 8.26941 64.6871L7.95985 64.4818C7.86246 64.4088 7.77203 64.3253 7.67464 64.2523L7.12508 63.8001C6.48532 63.2147 5.9136 62.5589 5.42077 61.8454C4.70673 60.8128 4.17716 59.6642 3.85559 58.4507C3.79592 58.2633 3.75171 58.0714 3.72342 57.8768C3.6956 57.7133 3.67125 57.5742 3.6469 57.4524L3.60516 57.1916C3.60579 57.1717 3.60811 57.1519 3.61212 57.1324Z" fill="#263238"/>
<defs>
<filter id="filter0_d_12_722" x="69.3416" y="4.45215" width="38.7958" height="38.7974" filterUnits="userSpaceOnUse" color-interpolation-filters="sRGB">
<feFlood flood-opacity="0" result="BackgroundImageFix"/>
<feColorMatrix in="SourceAlpha" type="matrix" values="0 0 0 0 0 0 0 0 0 0 0 0 0 0 0 0 0 0 127 0" result="hardAlpha"/>
<feOffset dy="4"/>
<feGaussianBlur stdDeviation="2"/>
<feComposite in2="hardAlpha" operator="out"/>
<feColorMatrix type="matrix" values="0 0 0 0 0.701961 0 0 0 0 0.313726 0 0 0 0 0.258824 0 0 0 0.25 0"/>
<feBlend mode="normal" in2="BackgroundImageFix" result="effect1_dropShadow_12_722"/>
<feBlend mode="normal" in="SourceGraphic" in2="effect1_dropShadow_12_722" result="shape"/>
</filter>
</defs>
</svg>
