<svg width="32" height="32" viewBox="0 0 32 32" fill="none" xmlns="http://www.w3.org/2000/svg">
<path fill-rule="evenodd" clip-rule="evenodd" d="M4 11.733C4 9.4928 4 8.37269 4.43597 7.51705C4.81947 6.7644 5.43139 6.15248 6.18404 5.76898C7.03969 5.33301 8.15979 5.33301 10.4 5.33301H21.6C23.8402 5.33301 24.9603 5.33301 25.816 5.76898C26.5686 6.15248 27.1805 6.7644 27.564 7.51705C28 8.37269 28 9.4928 28 11.733V12.583H4V11.733ZM4 14.083H28V22.933C28 25.1732 28 26.2933 27.564 27.149C27.1805 27.9016 26.5686 28.5135 25.816 28.897C24.9603 29.333 23.8402 29.333 21.6 29.333H21.6H10.4H10.4C8.15978 29.333 7.03968 29.333 6.18404 28.897C5.43139 28.5135 4.81947 27.9016 4.43597 27.149C4 26.2933 4 25.1732 4 22.933V14.083ZM16.75 17.333C16.75 17.0564 16.5978 16.8023 16.3539 16.6718C16.11 16.5412 15.8141 16.5555 15.584 16.709L13.584 18.0423C13.2393 18.2721 13.1462 18.7377 13.376 19.0824C13.6057 19.427 14.0714 19.5201 14.416 19.2904L15.25 18.7344V23.2497H14.3333C13.9191 23.2497 13.5833 23.5855 13.5833 23.9997C13.5833 24.4139 13.9191 24.7497 14.3333 24.7497H16H17.6667C18.0809 24.7497 18.4167 24.4139 18.4167 23.9997C18.4167 23.5855 18.0809 23.2497 17.6667 23.2497H16.75V17.333Z" fill="currentColor"/>
<path d="M21.3332 2.66626V7.99959M10.6665 2.66626V7.99959" stroke="currentColor" stroke-width="1.5" stroke-linecap="round" stroke-linejoin="round"/>
</svg>
