<svg width="20" height="21" viewBox="0 0 20 21" fill="none" xmlns="http://www.w3.org/2000/svg">
<path d="M11.7081 5.50002C12.522 5.65882 13.27 6.0569 13.8564 6.6433C14.4428 7.2297 14.8409 7.97774 14.9997 8.79169M11.7081 2.16669C13.3991 2.35455 14.976 3.11183 16.1799 4.31419C17.3838 5.51655 18.1431 7.09253 18.3331 8.78335M8.52221 12.0526C7.52089 11.0513 6.73023 9.91906 6.15024 8.71104C6.10035 8.60714 6.0754 8.55518 6.05624 8.48944C5.98813 8.25581 6.03705 7.96893 6.17873 7.77107C6.2186 7.71539 6.26623 7.66776 6.36149 7.5725C6.65283 7.28117 6.79849 7.1355 6.89373 6.98901C7.25289 6.43661 7.25289 5.72446 6.89373 5.17205C6.79849 5.02557 6.65283 4.8799 6.36149 4.58856L6.1991 4.42617C5.75623 3.9833 5.53479 3.76186 5.29697 3.64158C4.82401 3.40235 4.26545 3.40235 3.79249 3.64158C3.55467 3.76186 3.33323 3.9833 2.89036 4.42617L2.759 4.55753C2.31765 4.99888 2.09697 5.21956 1.92843 5.51958C1.74142 5.85251 1.60695 6.36958 1.60809 6.75143C1.60911 7.09556 1.67586 7.33074 1.80937 7.80111C2.52684 10.3289 3.88057 12.7142 5.87056 14.7042C7.86054 16.6942 10.2458 18.0479 12.7737 18.7654C13.244 18.8989 13.4792 18.9657 13.8234 18.9667C14.2052 18.9678 14.7223 18.8334 15.0552 18.6464C15.3552 18.4778 15.5759 18.2571 16.0173 17.8158L16.1486 17.6844C16.5915 17.2415 16.8129 17.0201 16.9332 16.7823C17.1724 16.3093 17.1724 15.7508 16.9332 15.2778C16.8129 15.04 16.5915 14.8186 16.1486 14.3757L15.9862 14.2133C15.6949 13.922 15.5492 13.7763 15.4027 13.6811C14.8503 13.3219 14.1382 13.3219 13.5858 13.6811C13.4393 13.7763 13.2936 13.922 13.0023 14.2133C12.907 14.3086 12.8594 14.3562 12.8037 14.3961C12.6059 14.5377 12.319 14.5866 12.0853 14.5185C12.0196 14.4994 11.9676 14.4744 11.8637 14.4245C10.6557 13.8446 9.52352 13.0539 8.52221 12.0526Z" stroke="currentColor" stroke-width="1.5" stroke-linecap="round" stroke-linejoin="round"/>
</svg>
