<svg width="20" height="21" viewBox="0 0 20 21" fill="none" xmlns="http://www.w3.org/2000/svg">
<path d="M9.99998 17.5842H17.5M2.5 17.5842H3.89545C4.3031 17.5842 4.50693 17.5842 4.69874 17.5381C4.8688 17.4973 5.03138 17.43 5.1805 17.3386C5.34869 17.2355 5.49282 17.0914 5.78107 16.8031L16.25 6.33417C16.9404 5.64382 16.9404 4.52453 16.25 3.83417C15.5597 3.14382 14.4404 3.14382 13.75 3.83417L3.28105 14.3031C2.9928 14.5914 2.84867 14.7355 2.7456 14.9037C2.65422 15.0528 2.58688 15.2154 2.54605 15.3855C2.5 15.5773 2.5 15.7811 2.5 16.1887V17.5842Z" stroke="#0FAE7F" stroke-width="1.5" stroke-linecap="round" stroke-linejoin="round"/>
</svg>
