<svg width="48" height="49" viewBox="0 0 48 49" fill="none" xmlns="http://www.w3.org/2000/svg">
<rect x="0.5" y="0.617188" width="47" height="47" rx="23.5" fill="white"/>
<rect x="0.5" y="0.617188" width="47" height="47" rx="23.5" stroke="currentColor"/>
<path d="M19.2725 35.2983C17.5871 32.8932 16.5957 29.967 16.5957 26.8075C16.5957 22.7158 19.9108 19.3994 24.0001 19.3994C28.0893 19.3994 31.4044 22.7158 31.4044 26.8075" stroke="currentColor" stroke-width="1.5" stroke-linecap="round" stroke-linejoin="round"/>
<path d="M19.2725 35.2983C17.5871 32.8932 16.5957 29.967 16.5957 26.8075C16.5957 22.7158 19.9108 19.3994 24.0001 19.3994C28.0893 19.3994 31.4044 22.7158 31.4044 26.8075" stroke="currentColor" stroke-width="1.5" stroke-linecap="round" stroke-linejoin="round"/>
<path d="M31.8051 34.1959C31.6718 34.2033 31.5409 34.2157 31.4063 34.2157C27.3171 34.2157 24.002 30.8993 24.002 26.8076" stroke="currentColor" stroke-width="1.5" stroke-linecap="round" stroke-linejoin="round"/>
<path d="M31.8051 34.1959C31.6718 34.2033 31.5409 34.2157 31.4063 34.2157C27.3171 34.2157 24.002 30.8993 24.002 26.8076" stroke="currentColor" stroke-width="1.5" stroke-linecap="round" stroke-linejoin="round"/>
<path d="M25.5389 36.2433C22.3929 34.2814 20.2977 30.7897 20.2977 26.8079C20.2977 24.762 21.9558 23.1039 24.0004 23.1039C26.0451 23.1039 27.7032 24.762 27.7032 26.8079C27.7032 28.8537 29.3614 30.5119 31.406 30.5119C33.4507 30.5119 35.1088 28.8537 35.1088 26.8079C35.1088 20.6703 30.1356 15.6958 24.0017 15.6958C17.8678 15.6958 12.8945 20.6703 12.8945 26.8079C12.8945 28.1759 13.0476 29.5081 13.3291 30.7922" stroke="currentColor" stroke-width="1.5" stroke-linecap="round" stroke-linejoin="round"/>
<path d="M25.5389 36.2433C22.3929 34.2814 20.2977 30.7897 20.2977 26.8079C20.2977 24.762 21.9558 23.1039 24.0004 23.1039C26.0451 23.1039 27.7032 24.762 27.7032 26.8079C27.7032 28.8537 29.3614 30.5119 31.406 30.5119C33.4507 30.5119 35.1088 28.8537 35.1088 26.8079C35.1088 20.6703 30.1356 15.6958 24.0017 15.6958C17.8678 15.6958 12.8945 20.6703 12.8945 26.8079C12.8945 28.1759 13.0476 29.5081 13.3291 30.7922" stroke="currentColor" stroke-width="1.5" stroke-linecap="round" stroke-linejoin="round"/>
<path d="M34.338 16.6761C31.8131 13.8079 28.1214 11.9917 24.0001 11.9917C19.8787 11.9917 16.187 13.8079 13.6621 16.6761" stroke="currentColor" stroke-width="1.5" stroke-linecap="round" stroke-linejoin="round"/>
<path d="M34.338 16.6761C31.8131 13.8079 28.1214 11.9917 24.0001 11.9917C19.8787 11.9917 16.187 13.8079 13.6621 16.6761" stroke="currentColor" stroke-width="1.5" stroke-linecap="round" stroke-linejoin="round"/>
</svg>
