<svg width="48" height="49" viewBox="0 0 48 49" fill="none" xmlns="http://www.w3.org/2000/svg">
<rect x="0.5" y="0.617188" width="47" height="47" rx="23.5" fill="white"/>
<rect x="0.5" y="0.617188" width="47" height="47" rx="23.5" stroke="currentColor"/>
<path d="M19.1488 13.2041H18.9063C16.869 13.2041 15.8503 13.2041 15.0722 13.6006C14.3877 13.9494 13.8312 14.5059 13.4824 15.1903C13.0859 15.9685 13.0859 16.9872 13.0859 19.0245V19.267M19.1488 35.0306H18.9063C16.869 35.0306 15.8503 35.0306 15.0722 34.6341C14.3877 34.2853 13.8312 33.7288 13.4824 33.0443C13.0859 32.2662 13.0859 31.2475 13.0859 29.2102V28.9677M34.9124 19.267V19.0245C34.9124 16.9872 34.9124 15.9685 34.5159 15.1903C34.1671 14.5059 33.6106 13.9494 32.9262 13.6006C32.148 13.2041 31.1293 13.2041 29.092 13.2041H28.8495M34.9124 28.9677V29.2102C34.9124 31.2475 34.9124 32.2662 34.5159 33.0443C34.1671 33.7288 33.6106 34.2853 32.9262 34.6341C32.148 35.0306 31.1293 35.0306 29.092 35.0306H28.8495M18.5426 19.267V21.0859M29.4558 19.267V21.0859M22.7866 24.845C23.7567 24.845 24.6055 23.9962 24.6055 23.0261V19.267M27.8797 27.9975C25.697 30.1802 22.1805 30.1802 19.9979 27.9975" stroke="currentColor" stroke-width="1.5" stroke-linecap="round" stroke-linejoin="round"/>
</svg>
