<svg width="33" height="33" viewBox="0 0 33 33" fill="none" xmlns="http://www.w3.org/2000/svg">
<path d="M29.8333 13.0333V10.6333C29.8333 9.8866 29.8333 9.51323 29.688 9.22801C29.5602 8.97713 29.3562 8.77316 29.1053 8.64533C28.8201 8.5 28.4467 8.5 27.7 8.5H16.5H5.30001C4.55327 8.5 4.1799 8.5 3.89468 8.64532C3.6438 8.77316 3.43983 8.97713 3.312 9.22801C3.16667 9.51323 3.16667 9.8866 3.16667 10.6333V13.0333C3.16667 13.7801 3.16667 14.1534 3.312 14.4387C3.43983 14.6895 3.6438 14.8935 3.89468 15.0213C4.1799 15.1667 4.55327 15.1667 5.3 15.1667H5.30001L16.5 15.1667L27.7 15.1667C28.4467 15.1667 28.8201 15.1667 29.1053 15.0213C29.3562 14.8935 29.5602 14.6895 29.688 14.4387C29.8333 14.1534 29.8333 13.7801 29.8333 13.0333Z" fill="currentColor"/>
<path d="M27.1667 25.9759V16.5734H17.2033V29.8334H23.1959C24.5858 29.8334 25.2808 29.8334 25.8116 29.5706C26.2786 29.3395 26.6582 28.9707 26.8962 28.517C27.1667 28.0013 27.1667 27.3262 27.1667 25.976V25.9759Z" fill="currentColor"/>
<path d="M5.83333 16.5734V25.9759C5.83333 27.3262 5.94103 28.0013 6.21251 28.517C6.45132 28.9707 6.83237 29.3395 7.30105 29.5706C7.83387 29.8334 8.53137 29.8334 9.92637 29.8334L15.7967 29.8334V16.5734H5.83333Z" fill="currentColor"/>
<path d="M16.5 8.50008H11.7857C11.0911 8.50008 10.4249 8.21913 9.93376 7.71903C9.44259 7.21894 9.16666 6.54066 9.16666 5.83341C9.16666 5.12617 9.44259 4.44789 9.93376 3.9478C10.4249 3.4477 11.0911 3.16675 11.7857 3.16675C15.4524 3.16675 16.5 8.50008 16.5 8.50008ZM16.5 8.50008H21.2143C21.9089 8.50008 22.5751 8.21913 23.0662 7.71903C23.5574 7.21894 23.8333 6.54066 23.8333 5.83341C23.8333 5.12617 23.5574 4.44789 23.0662 3.9478C22.5751 3.4477 21.9089 3.16675 21.2143 3.16675C17.5476 3.16675 16.5 8.50008 16.5 8.50008Z" stroke="currentColor" stroke-width="1.70622" stroke-linecap="round" stroke-linejoin="round"/>
</svg>
