<svg width="25" height="24" viewBox="0 0 25 24" fill="none" xmlns="http://www.w3.org/2000/svg">
<path d="M13.2323 2.76424C12.881 2.49099 12.7053 2.35436 12.5113 2.30184C12.3402 2.2555 12.1598 2.2555 11.9887 2.30184C11.7947 2.35436 11.619 2.49099 11.2677 2.76424L4.48539 8.03937C4.03202 8.39199 3.80534 8.5683 3.64203 8.7891C3.49737 8.98469 3.3896 9.20503 3.32403 9.4393C3.25 9.70376 3.25 9.99094 3.25 10.5653V17.8002C3.25 18.9203 3.25 19.4804 3.46799 19.9082C3.65973 20.2845 3.96569 20.5905 4.34202 20.7822C4.76984 21.0002 5.3299 21.0002 6.45 21.0002H8.45C8.73003 21.0002 8.87004 21.0002 8.977 20.9457C9.07108 20.8978 9.14757 20.8213 9.1955 20.7272C9.25 20.6203 9.25 20.4803 9.25 20.2002V13.6002C9.25 13.0402 9.25 12.7601 9.35899 12.5462C9.45487 12.3581 9.60785 12.2051 9.79601 12.1092C10.0099 12.0002 10.2899 12.0002 10.85 12.0002H13.65C14.2101 12.0002 14.4901 12.0002 14.704 12.1092C14.8922 12.2051 15.0451 12.3581 15.141 12.5462C15.25 12.7601 15.25 13.0402 15.25 13.6002V20.2002C15.25 20.4803 15.25 20.6203 15.3045 20.7272C15.3524 20.8213 15.4289 20.8978 15.523 20.9457C15.63 21.0002 15.77 21.0002 16.05 21.0002H18.05C19.1701 21.0002 19.7302 21.0002 20.158 20.7822C20.5343 20.5905 20.8403 20.2845 21.032 19.9082C21.25 19.4804 21.25 18.9203 21.25 17.8002V10.5653C21.25 9.99094 21.25 9.70376 21.176 9.4393C21.1104 9.20503 21.0026 8.98469 20.858 8.7891C20.6947 8.5683 20.468 8.39199 20.0146 8.03937L13.2323 2.76424Z" stroke="#8B95AA" stroke-width="1.5" stroke-linecap="round" stroke-linejoin="round"/>
</svg>
