<svg width="25" height="24" viewBox="0 0 25 24" fill="none" xmlns="http://www.w3.org/2000/svg">
<path d="M13.2323 2.764C12.881 2.49075 12.7053 2.35412 12.5113 2.3016C12.3402 2.25526 12.1598 2.25526 11.9887 2.3016C11.7947 2.35412 11.619 2.49075 11.2677 2.764L4.48539 8.03912C4.03202 8.39175 3.80534 8.56806 3.64203 8.78886C3.49737 8.98444 3.3896 9.20478 3.32403 9.43905C3.25 9.70352 3.25 9.9907 3.25 10.5651V17.8C3.25 18.9201 3.25 19.4801 3.46799 19.908C3.65973 20.2843 3.96569 20.5903 4.34202 20.782C4.76984 21 5.3299 21 6.45 21H8.45C8.73003 21 8.87004 21 8.977 20.9455C9.07108 20.8976 9.14757 20.8211 9.1955 20.727C9.25 20.62 9.25 20.48 9.25 20.2V13.6C9.25 13.0399 9.25 12.7599 9.35899 12.546C9.45487 12.3578 9.60785 12.2049 9.79601 12.109C10.0099 12 10.2899 12 10.85 12H13.65C14.2101 12 14.4901 12 14.704 12.109C14.8922 12.2049 15.0451 12.3578 15.141 12.546C15.25 12.7599 15.25 13.0399 15.25 13.6V20.2C15.25 20.48 15.25 20.62 15.3045 20.727C15.3524 20.8211 15.4289 20.8976 15.523 20.9455C15.63 21 15.77 21 16.05 21H18.05C19.1701 21 19.7302 21 20.158 20.782C20.5343 20.5903 20.8403 20.2843 21.032 19.908C21.25 19.4801 21.25 18.9201 21.25 17.8V10.5651C21.25 9.9907 21.25 9.70352 21.176 9.43905C21.1104 9.20478 21.0026 8.98444 20.858 8.78886C20.6947 8.56806 20.468 8.39175 20.0146 8.03913L13.2323 2.764Z" fill="#0FAE7F"/>
</svg>
