<svg width="40" height="41" viewBox="0 0 40 41" fill="none" xmlns="http://www.w3.org/2000/svg">
<path fill-rule="evenodd" clip-rule="evenodd" d="M25.001 25.5C30.5238 25.5 35.001 21.0228 35.001 15.5C35.001 9.97715 30.5238 5.5 25.001 5.5C19.4781 5.5 15.001 9.97715 15.001 15.5C15.001 15.9561 15.0315 16.4051 15.0907 16.8451L15.0907 16.8451C15.1879 17.5686 15.2366 17.9304 15.2038 18.1593C15.1697 18.3978 15.1263 18.5262 15.0088 18.7365C14.896 18.9383 14.6972 19.1371 14.2995 19.5348L14.2995 19.5348L5.78203 28.0523C5.49377 28.3405 5.34965 28.4847 5.24658 28.6529C5.1552 28.802 5.08785 28.9646 5.04703 29.1346C5.00098 29.3264 5.00098 29.5303 5.00098 29.9379V32.8333C5.00098 33.7668 5.00098 34.2335 5.18263 34.59C5.34242 34.9036 5.59739 35.1586 5.91099 35.3183C6.26751 35.5 6.73421 35.5 7.66761 35.5H7.66764H11.6676V32.1667H15.001V28.8333H18.3343L20.9662 26.2014L20.9662 26.2014C21.3638 25.8038 21.5626 25.605 21.7645 25.4922C21.9747 25.3747 22.1032 25.3312 22.3417 25.2971C22.5706 25.2644 22.9323 25.313 23.6559 25.4103C24.0958 25.4695 24.5448 25.5 25.001 25.5ZM25.001 19.3843C27.1465 19.3843 28.8857 17.645 28.8857 15.4995C28.8857 13.354 27.1465 11.6147 25.001 11.6147C22.8555 11.6147 21.1162 13.354 21.1162 15.4995C21.1162 17.645 22.8555 19.3843 25.001 19.3843Z" fill="#40BE6B"/>
</svg>
