<svg width="32" height="32" viewBox="0 0 32 32" fill="none" xmlns="http://www.w3.org/2000/svg">
<path fill-rule="evenodd" clip-rule="evenodd" d="M17.2782 28.0613C16.8537 28.4822 16.4264 28.9059 15.9992 29.3332C15.5719 28.9059 15.1447 28.4822 14.7202 28.0613C9.84558 23.2275 5.33252 18.7523 5.33252 13.3332C5.33252 7.44213 10.1081 2.6665 15.9992 2.6665C21.8902 2.6665 26.6659 7.44213 26.6659 13.3332C26.6659 18.7523 22.1528 23.2275 17.2782 28.0613ZM19.999 13.333C19.999 15.5421 18.2082 17.333 15.999 17.333C13.7899 17.333 11.999 15.5421 11.999 13.333C11.999 11.1239 13.7899 9.33301 15.999 9.33301C18.2082 9.33301 19.999 11.1239 19.999 13.333Z" fill="#40BE6B"/>
</svg>
