<svg width="20" height="21" viewBox="0 0 20 21" fill="none" xmlns="http://www.w3.org/2000/svg">
<path d="M1.66667 6.33333L8.47077 11.0962C9.02175 11.4819 9.29724 11.6747 9.59689 11.7494C9.86158 11.8154 10.1384 11.8154 10.4031 11.7494C10.7028 11.6747 10.9783 11.4819 11.5292 11.0962L18.3333 6.33333M5.66667 17.1667H14.3333C15.7335 17.1667 16.4335 17.1667 16.9683 16.8942C17.4387 16.6545 17.8212 16.272 18.0609 15.8016C18.3333 15.2669 18.3333 14.5668 18.3333 13.1667V7.83333C18.3333 6.4332 18.3333 5.73313 18.0609 5.19835C17.8212 4.72795 17.4387 4.3455 16.9683 4.10581C16.4335 3.83333 15.7335 3.83333 14.3333 3.83333H5.66667C4.26654 3.83333 3.56647 3.83333 3.0317 4.10581C2.56129 4.3455 2.17884 4.72795 1.93916 5.19835C1.66667 5.73313 1.66667 6.4332 1.66667 7.83333V13.1667C1.66667 14.5668 1.66667 15.2669 1.93916 15.8016C2.17884 16.272 2.56129 16.6545 3.0317 16.8942C3.56647 17.1667 4.26654 17.1667 5.66667 17.1667Z" stroke="currentColor" stroke-width="1.5" stroke-linecap="round" stroke-linejoin="round"/>
</svg>
