<svg width="24" height="25" viewBox="0 0 24 25" fill="none" xmlns="http://www.w3.org/2000/svg">
<path d="M16 9.25935V5.76C16 4.92826 16 4.5124 15.8248 4.25682C15.6717 4.03353 15.4346 3.88185 15.1678 3.83643C14.8623 3.78445 14.4847 3.95872 13.7295 4.30727L4.85901 8.40134C4.18551 8.71219 3.84875 8.86762 3.60211 9.10867C3.38406 9.32177 3.21762 9.5819 3.1155 9.86918C3 10.1941 3 10.565 3 11.3068H16V9.25935Z" fill="#10211B"/>
<path fill-rule="evenodd" clip-rule="evenodd" d="M17.8 21.5H17.8H6.2C5.07989 21.5 4.51984 21.5 4.09202 21.282C3.71569 21.0903 3.40973 20.7843 3.21799 20.408C3 19.9802 3 19.4201 3 18.3V11.7C3 10.5799 3 10.0198 3.21799 9.59202C3.40973 9.21569 3.7157 8.90973 4.09202 8.71799C4.51984 8.5 5.0799 8.5 6.2 8.5H17.8C18.9201 8.5 19.4802 8.5 19.908 8.71799C20.2843 8.90974 20.5903 9.2157 20.782 9.59202C21 10.0198 21 10.5799 21 11.7V18.3C21 19.4201 21 19.9802 20.782 20.408C20.5903 20.7843 20.2843 21.0903 19.908 21.282C19.4802 21.5 18.9201 21.5 17.8 21.5ZM16.5 16.125C17.1213 16.125 17.625 15.6213 17.625 15C17.625 14.3787 17.1213 13.875 16.5 13.875C15.8787 13.875 15.375 14.3787 15.375 15C15.375 15.6213 15.8787 16.125 16.5 16.125Z" fill="#0FAE7F"/>
</svg>
