<svg width="20" height="21" viewBox="0 0 20 21" fill="none" xmlns="http://www.w3.org/2000/svg">
<path d="M12.5 2.16666V3.33333C12.5 3.80004 12.5 4.0334 12.4092 4.21166C12.3293 4.36846 12.2018 4.49594 12.045 4.57584C11.8667 4.66666 11.6334 4.66666 11.1667 4.66666H8.83334C8.36663 4.66666 8.13327 4.66666 7.95501 4.57584C7.79821 4.49594 7.67073 4.36846 7.59083 4.21166C7.50001 4.0334 7.50001 3.80004 7.50001 3.33333V2.16666M6.83334 18.8333H13.1667C14.1001 18.8333 14.5668 18.8333 14.9233 18.6517C15.2369 18.4919 15.4919 18.2369 15.6517 17.9233C15.8333 17.5668 15.8333 17.1001 15.8333 16.1667V4.83333C15.8333 3.89991 15.8333 3.4332 15.6517 3.07668C15.4919 2.76308 15.2369 2.50811 14.9233 2.34832C14.5668 2.16666 14.1001 2.16666 13.1667 2.16666H6.83334C5.89992 2.16666 5.43321 2.16666 5.07669 2.34832C4.76308 2.50811 4.50812 2.76308 4.34833 3.07668C4.16667 3.4332 4.16667 3.89991 4.16667 4.83333V16.1667C4.16667 17.1001 4.16667 17.5668 4.34833 17.9233C4.50812 18.2369 4.76308 18.4919 5.07669 18.6517C5.43321 18.8333 5.89992 18.8333 6.83334 18.8333Z" stroke="currentColor" stroke-width="1.5" stroke-linecap="round" stroke-linejoin="round"/>
</svg>
