<svg width="20" height="21" viewBox="0 0 20 21" fill="none" xmlns="http://www.w3.org/2000/svg">
<path d="M5.1193 11.8337L5.46079 15.9197C5.53185 16.77 6.56666 17.1464 7.16743 16.5405L8.19911 15.5C8.56009 15.136 9.13791 15.1039 9.53698 15.4257L12.2522 17.6154C12.7949 18.0531 13.6077 17.815 13.8285 17.1536L17.9032 4.94492C18.1571 4.18432 17.4574 3.44926 16.6852 3.66531L3.0665 7.47572C2.31596 7.68571 2.08347 8.63551 2.65217 9.16842L4.80656 11.1873C4.98724 11.3566 5.09868 11.5869 5.1193 11.8337Z" fill="#10211B"/>
<path fill-rule="evenodd" clip-rule="evenodd" d="M8.36338 12.9889L14.467 6.91333L6.92782 11.724L6.92402 11.7206L6.92334 11.7268L6.92253 11.7273L6.92322 11.7279L6.46484 15.9079L8.36475 12.9906L8.27583 12.9122L8.36338 12.9889Z" fill="#0FAE7F"/>
</svg>
