<svg width="20" height="21" viewBox="0 0 20 21" fill="none" xmlns="http://www.w3.org/2000/svg">
<path fill-rule="evenodd" clip-rule="evenodd" d="M1.66602 9.86401H18.3327V13.6667V13.6667C18.3327 14.6001 18.3327 15.0668 18.151 15.4234C17.9912 15.737 17.7363 15.9919 17.4227 16.1517C17.0661 16.3334 16.5994 16.3334 15.666 16.3334L4.33268 16.3334C3.39926 16.3334 2.93255 16.3334 2.57603 16.1517C2.26243 15.9919 2.00746 15.737 1.84767 15.4234C1.66602 15.0668 1.66602 14.6001 1.66602 13.6667V9.86401ZM4.24935 12.1667C4.24935 11.7525 4.58514 11.4167 4.99935 11.4167H9.16602C9.58023 11.4167 9.91602 11.7525 9.91602 12.1667C9.91602 12.5809 9.58023 12.9167 9.16602 12.9167H4.99935C4.58514 12.9167 4.24935 12.5809 4.24935 12.1667Z" fill="#10211B"/>
<path d="M1.66602 8.83329H18.3327V7.86663C18.3327 6.74652 18.3327 6.18647 18.1147 5.75864C17.9229 5.38232 17.617 5.07636 17.2407 4.88461C16.8128 4.66663 16.2528 4.66663 15.1327 4.66663H4.86602C3.74591 4.66663 3.18586 4.66663 2.75803 4.88461C2.38171 5.07636 2.07575 5.38232 1.884 5.75864C1.66602 6.18647 1.66602 6.74652 1.66602 7.86663V8.83329Z" fill="#0FAE7F"/>
</svg>
