<svg width="24" height="25" viewBox="0 0 24 25" fill="none" xmlns="http://www.w3.org/2000/svg">
<path d="M6.5 7H6.51M17.5 7H17.51M6.5 18H6.51M15.6 10.5H19.4C19.9601 10.5 20.2401 10.5 20.454 10.391C20.6422 10.2951 20.7951 10.1422 20.891 9.95399C21 9.74008 21 9.46005 21 8.9V5.1C21 4.53995 21 4.25992 20.891 4.04601C20.7951 3.85785 20.6422 3.70487 20.454 3.60899C20.2401 3.5 19.9601 3.5 19.4 3.5H15.6C15.0399 3.5 14.7599 3.5 14.546 3.60899C14.3578 3.70487 14.2049 3.85785 14.109 4.04601C14 4.25992 14 4.53995 14 5.1V8.9C14 9.46005 14 9.74008 14.109 9.95399C14.2049 10.1422 14.3578 10.2951 14.546 10.391C14.7599 10.5 15.0399 10.5 15.6 10.5ZM4.6 10.5H8.4C8.96005 10.5 9.24008 10.5 9.45399 10.391C9.64215 10.2951 9.79513 10.1422 9.89101 9.95399C10 9.74008 10 9.46005 10 8.9V5.1C10 4.53995 10 4.25992 9.89101 4.04601C9.79513 3.85785 9.64215 3.70487 9.45399 3.60899C9.24008 3.5 8.96005 3.5 8.4 3.5H4.6C4.03995 3.5 3.75992 3.5 3.54601 3.60899C3.35785 3.70487 3.20487 3.85785 3.10899 4.04601C3 4.25992 3 4.53995 3 5.1V8.9C3 9.46005 3 9.74008 3.10899 9.95399C3.20487 10.1422 3.35785 10.2951 3.54601 10.391C3.75992 10.5 4.03995 10.5 4.6 10.5ZM4.6 21.5H8.4C8.96005 21.5 9.24008 21.5 9.45399 21.391C9.64215 21.2951 9.79513 21.1422 9.89101 20.954C10 20.7401 10 20.4601 10 19.9V16.1C10 15.5399 10 15.2599 9.89101 15.046C9.79513 14.8578 9.64215 14.7049 9.45399 14.609C9.24008 14.5 8.96005 14.5 8.4 14.5H4.6C4.03995 14.5 3.75992 14.5 3.54601 14.609C3.35785 14.7049 3.20487 14.8578 3.10899 15.046C3 15.2599 3 15.5399 3 16.1V19.9C3 20.4601 3 20.7401 3.10899 20.954C3.20487 21.1422 3.35785 21.2951 3.54601 21.391C3.75992 21.5 4.03995 21.5 4.6 21.5Z" stroke="#0FAE7F" stroke-width="2" stroke-linecap="round" stroke-linejoin="round"/>
<path d="M13 13.5H13.01M17.5 18H17.51M17 21.5H21V17.5M14 17V21.5M21 14.5H16.5" stroke="#10211B" stroke-width="2" stroke-linecap="round" stroke-linejoin="round"/>
</svg>
