<svg width="24" height="25" viewBox="0 0 24 25" fill="none" xmlns="http://www.w3.org/2000/svg">
<path d="M5 9.5V17.5M9.5 9.5V17.5M14.5 9.5V17.5M19 9.5V17.5" stroke="#10211B" stroke-width="2.5" stroke-linecap="round" stroke-linejoin="round"/>
<path d="M20.1753 9.81314C20.7941 9.81314 21.1034 9.81314 21.3398 9.69272C21.5477 9.5868 21.7167 9.41779 21.8226 9.20991C21.943 8.97358 21.943 8.66421 21.943 8.04546V6.81193C21.943 6.30597 21.943 6.05299 21.8533 5.84423C21.7743 5.66009 21.6466 5.50093 21.484 5.38379C21.2997 5.25098 21.0527 5.1961 20.5588 5.08635L12.3833 3.26957C12.2402 3.23777 12.1686 3.22187 12.0963 3.21553C12.0321 3.2099 11.9675 3.2099 11.9033 3.21553C11.831 3.22187 11.7595 3.23777 11.6164 3.26957L3.44085 5.08635C2.94694 5.1961 2.69999 5.25098 2.51565 5.38379C2.35305 5.50093 2.22537 5.66009 2.14629 5.84423C2.05664 6.05299 2.05664 6.30597 2.05664 6.81193L2.05664 8.04546C2.05664 8.66421 2.05664 8.97358 2.17706 9.20991C2.28298 9.41779 2.45199 9.5868 2.65987 9.69272C2.8962 9.81314 3.20557 9.81314 3.82432 9.81314H20.1753Z" fill="#0FAE7F"/>
<path d="M20.0707 21.6811C20.6815 21.6811 20.9869 21.6811 21.2202 21.5622C21.4254 21.4577 21.5922 21.2908 21.6968 21.0856C21.8156 20.8524 21.8156 20.547 21.8156 19.9362V19.0637C21.8156 18.453 21.8156 18.1476 21.6968 17.9143C21.5922 17.7091 21.4254 17.5423 21.2202 17.4377C20.9869 17.3188 20.6815 17.3188 20.0707 17.3188H3.93044C3.31967 17.3188 3.01429 17.3188 2.781 17.4377C2.5758 17.5423 2.40897 17.7091 2.30441 17.9143C2.18555 18.1476 2.18555 18.453 2.18555 19.0637L2.18555 19.9362C2.18555 20.547 2.18555 20.8524 2.30441 21.0856C2.40897 21.2908 2.5758 21.4577 2.781 21.5622C3.01429 21.6811 3.31967 21.6811 3.93044 21.6811H20.0707Z" fill="#0FAE7F"/>
</svg>
