<svg width="24" height="25" viewBox="0 0 24 25" fill="none" xmlns="http://www.w3.org/2000/svg">
<path fill-rule="evenodd" clip-rule="evenodd" d="M2 9.24023L9.56005 14.5323C10.4392 15.1477 10.8787 15.4553 11.3569 15.5745C11.7792 15.6798 12.2209 15.6798 12.6432 15.5745C13.1214 15.4553 13.5609 15.1477 14.4401 14.5323L22 9.24031C22 9.26015 22 9.28011 22 9.30018V15.7002C22 17.3803 22 18.2204 21.673 18.8622C21.3854 19.4266 20.9265 19.8856 20.362 20.1732C19.7202 20.5002 18.8802 20.5002 17.2 20.5002H6.8C5.11984 20.5002 4.27976 20.5002 3.63803 20.1732C3.07354 19.8856 2.6146 19.4266 2.32698 18.8622C2 18.2204 2 17.3803 2 15.7002V9.30018C2 9.28008 2 9.2601 2 9.24023Z" fill="#10211B"/>
<path d="M10.1649 13.2162L2.87401 8.11253C2.85362 8.09826 2.84342 8.09112 2.83385 8.08425C2.31715 7.71341 2.00763 7.11893 2.00014 6.48298C2 6.4712 2 6.45875 2 6.43385C2 6.38828 2 6.36549 2.00037 6.34621C2.02109 5.27184 2.88707 4.40585 3.96145 4.38514C3.98072 4.38477 4.00351 4.38477 4.04909 4.38477H19.9509C19.9965 4.38477 20.0193 4.38477 20.0386 4.38514C21.1129 4.40585 21.9789 5.27184 21.9996 6.34621C22 6.36549 22 6.38828 22 6.43385C22 6.45875 22 6.4712 21.9999 6.48298C21.9924 7.11893 21.6828 7.71341 21.1661 8.08425C21.1566 8.09107 21.1465 8.09816 21.1264 8.11223L21.126 8.11253L13.8351 13.2162C13.1739 13.679 12.8433 13.9104 12.4837 14C12.1661 14.0792 11.8339 14.0792 11.5163 14C11.1567 13.9104 10.8261 13.679 10.1649 13.2162Z" fill="#0FAE7F"/>
</svg>
