<svg width="20" height="21" viewBox="0 0 20 21" fill="none" xmlns="http://www.w3.org/2000/svg">
<path fill-rule="evenodd" clip-rule="evenodd" d="M4.34767 3.07664C4.16602 3.43316 4.16602 3.89987 4.16602 4.83329V16.1666C4.16602 17.1 4.16602 17.5668 4.34767 17.9233C4.50746 18.2369 4.76243 18.4918 5.07603 18.6516C5.43255 18.8333 5.89926 18.8333 6.83268 18.8333H13.166C14.0994 18.8333 14.5661 18.8333 14.9227 18.6516C15.2363 18.4918 15.4912 18.2369 15.651 17.9233C15.8327 17.5668 15.8327 17.1 15.8327 16.1666V4.83329C15.8327 3.89987 15.8327 3.43316 15.651 3.07664C15.4912 2.76304 15.2363 2.50807 14.9227 2.34828C14.5661 2.16663 14.0994 2.16663 13.166 2.16663H6.83268C5.89926 2.16663 5.43255 2.16663 5.07603 2.34828C4.76243 2.50807 4.50746 2.76304 4.34767 3.07664ZM8.08887 7.58796C8.08887 6.85011 8.58205 6.22744 9.25674 6.03162C9.30813 5.66747 9.62103 5.38736 9.99935 5.38736C10.3552 5.38736 10.6531 5.63515 10.7301 5.9676H11.1598C11.574 5.9676 11.9098 6.30338 11.9098 6.7176C11.9098 7.13181 11.574 7.4676 11.1598 7.4676H9.99935H9.70923C9.64275 7.4676 9.58887 7.52149 9.58887 7.58796C9.58887 7.65443 9.64276 7.70832 9.70923 7.70832H10.2895C11.1844 7.70832 11.9098 8.43378 11.9098 9.32868C11.9098 10.0665 11.4167 10.6892 10.742 10.885C10.6906 11.2492 10.3777 11.5293 9.99935 11.5293C9.64352 11.5293 9.34557 11.2815 9.26864 10.949H8.83887C8.42465 10.949 8.08887 10.6133 8.08887 10.199C8.08887 9.78483 8.42465 9.44904 8.83887 9.44904H9.99935H10.2895C10.3559 9.44904 10.4098 9.39516 10.4098 9.32868C10.4098 9.26221 10.3559 9.20832 10.2895 9.20832H9.70923C8.81433 9.20832 8.08887 8.48286 8.08887 7.58796Z" fill="#0FAE7F"/>
<path d="M10.763 15.6447C10.763 16.0663 10.4213 16.408 9.99967 16.408C9.57809 16.408 9.23633 16.0663 9.23633 15.6447C9.23633 15.2231 9.57809 14.8813 9.99967 14.8813C10.4213 14.8813 10.763 15.2231 10.763 15.6447Z" fill="#10211B"/>
</svg>
