<svg width="20" height="21" viewBox="0 0 20 21" fill="none" xmlns="http://www.w3.org/2000/svg">
<path d="M3.33333 11.3333H16.3225C16.7079 11.3333 16.9006 11.3333 17.0107 11.2525C17.1067 11.182 17.1679 11.0739 17.179 10.9553C17.1916 10.8194 17.0925 10.6541 16.8942 10.3237L15.2058 7.50966C15.131 7.38496 15.0936 7.3226 15.0789 7.25604C15.066 7.19716 15.066 7.13618 15.0789 7.0773C15.0936 7.01073 15.131 6.94838 15.2058 6.82367L16.8942 4.00966C17.0925 3.67919 17.1916 3.51395 17.179 3.378C17.1679 3.25945 17.1067 3.15129 17.0107 3.08082C16.9006 3 16.7079 3 16.3225 3H3.33333L3.33333 18" stroke="currentColor" stroke-width="1.5" stroke-linecap="round" stroke-linejoin="round"/>
</svg>
