<svg width="24" height="24" viewBox="0 0 24 24" fill="none" xmlns="http://www.w3.org/2000/svg">
<path d="M4.5 16.4998C3 17.7598 2.5 21.4998 2.5 21.4998C2.5 21.4998 6.24 20.9998 7.5 19.4998C8.21 18.6598 8.2 17.3698 7.41 16.5898C7.02131 16.2188 6.50929 16.0045 5.97223 15.9879C5.43516 15.9712 4.91088 16.1536 4.5 16.4998Z" fill="currentColor"/>
<path d="M16.001 18C15.031 19.45 12.001 20 12.001 20V15.0264L16.008 13.0225C16.0991 13.3183 17.0295 16.4572 16.001 18Z" fill="currentColor"/>
<path d="M6 8.00002C4.55 8.97002 4 12 4 12H8.98311L11 8.00002C11 8.00002 7.62 6.92002 6 8.00002Z" fill="currentColor"/>
<path fill-rule="evenodd" clip-rule="evenodd" d="M9 12.0002L12 15.0002C13.3968 14.469 14.7369 13.799 16 13.0002C21.22 9.50025 22 4.72025 22 2.00025C19.8027 1.98662 17.6384 2.53538 15.713 3.59434C13.7876 4.6533 12.1652 6.18723 11 8.05025C10.2022 9.29631 9.53214 10.6197 9 12.0002ZM17.6333 6.9998C18.1234 6.9998 18.5206 6.60257 18.5206 6.11255C18.5206 5.62253 18.1234 5.22529 17.6333 5.22529C17.1433 5.22529 16.7461 5.62253 16.7461 6.11255C16.7461 6.60257 17.1433 6.9998 17.6333 6.9998Z" fill="currentColor"/>
</svg>
