<svg width="20" height="21" viewBox="0 0 20 21" fill="none" xmlns="http://www.w3.org/2000/svg">
<path d="M17.5 15.5V10.5C17.5 6.35786 14.1421 3 10 3C5.85786 3 2.5 6.35786 2.5 10.5V15.5M4.58333 18C3.43274 18 2.5 17.0673 2.5 15.9167V14.25C2.5 13.0994 3.43274 12.1667 4.58333 12.1667C5.73393 12.1667 6.66667 13.0994 6.66667 14.25V15.9167C6.66667 17.0673 5.73393 18 4.58333 18ZM15.4167 18C14.2661 18 13.3333 17.0673 13.3333 15.9167V14.25C13.3333 13.0994 14.2661 12.1667 15.4167 12.1667C16.5673 12.1667 17.5 13.0994 17.5 14.25V15.9167C17.5 17.0673 16.5673 18 15.4167 18Z" stroke="currentColor" stroke-width="1.5" stroke-linecap="round" stroke-linejoin="round"/>
</svg>
