<svg width="32" height="32" viewBox="0 0 32 32" fill="none" xmlns="http://www.w3.org/2000/svg">
<rect x="0.5" y="0.5" width="31" height="31" rx="15.5" fill="#0FAE7F"/>
<rect x="0.5" y="0.5" width="31" height="31" rx="15.5" stroke="#F1F1F1"/>
<path d="M10 17.1996C10 17.1996 10.0728 17.7092 12.1816 19.818C14.2905 21.9268 17.7095 21.9268 19.8184 19.818C20.5655 19.0708 21.048 18.1592 21.2657 17.1996M10 17.1996V20.7996M10 17.1996H13.6M22 14.7996C22 14.7996 21.9272 14.2901 19.8184 12.1812C17.7095 10.0724 14.2905 10.0724 12.1816 12.1812C11.4345 12.9284 10.952 13.84 10.7343 14.7996M22 14.7996V11.1996M22 14.7996H18.4" stroke="white" stroke-width="1.5" stroke-linecap="round" stroke-linejoin="round"/>
</svg>
