<svg width="33" height="32" viewBox="0 0 33 32" fill="none" xmlns="http://www.w3.org/2000/svg">
<path fill-rule="evenodd" clip-rule="evenodd" d="M9.34459 25.9674L8.67068 17.9037C8.65006 17.6569 8.53862 17.4266 8.35793 17.2573L3.96503 13.1408C3.39634 12.6079 3.62882 11.6581 4.37936 11.4481L28.2841 4.75973C29.0563 4.54367 29.756 5.27873 29.5021 6.03933L22.3511 27.4649C22.1304 28.1263 21.3176 28.3644 20.7748 27.9267L15.3367 23.5411C14.9376 23.2192 14.3598 23.2513 13.9988 23.6154L11.0512 26.5882C10.4505 27.1941 9.41565 26.8176 9.34459 25.9674ZM23.6463 10.2612L13.8805 19.9821L13.7405 19.8595L13.8827 19.9848L10.8428 24.6525L11.5762 17.9646L11.5751 17.9636L11.5764 17.9628L11.5775 17.9529L11.5836 17.9582L23.6463 10.2612Z" fill="white"/>
</svg>
