<svg width="21" height="20" viewBox="0 0 21 20" fill="none" xmlns="http://www.w3.org/2000/svg">
<path d="M7.16667 2.5H7C5.59987 2.5 4.8998 2.5 4.36502 2.77248C3.89462 3.01217 3.51217 3.39462 3.27248 3.86502C3 4.3998 3 5.09987 3 6.5V6.66667M7.16667 17.5H7C5.59987 17.5 4.8998 17.5 4.36502 17.2275C3.89462 16.9878 3.51217 16.6054 3.27248 16.135C3 15.6002 3 14.9001 3 13.5V13.3333M18 6.66667V6.5C18 5.09987 18 4.3998 17.7275 3.86502C17.4878 3.39462 17.1054 3.01217 16.635 2.77248C16.1002 2.5 15.4001 2.5 14 2.5H13.8333M18 13.3333V13.5C18 14.9001 18 15.6002 17.7275 16.135C17.4878 16.6054 17.1054 16.9878 16.635 17.2275C16.1002 17.5 15.4001 17.5 14 17.5H13.8333M3 10H3.00833M6.75 10H6.75833M14.25 10H14.2583M10.5 10H10.5083M18 10H18.0083" stroke="currentColor" stroke-width="1.5" stroke-linecap="round" stroke-linejoin="round"/>
<path d="M2.98853 10H18.0581" stroke="currentColor" stroke-width="1.5" stroke-linecap="round"/>
</svg>
