<svg width="20" height="21" viewBox="0 0 20 21" fill="none" xmlns="http://www.w3.org/2000/svg">
<path d="M8.7496 11.75L17.4996 3.00002M8.85591 12.0234L11.046 17.6551C11.2389 18.1512 11.3354 18.3993 11.4744 18.4717C11.5949 18.5345 11.7385 18.5345 11.859 18.4719C11.9981 18.3997 12.0949 18.1517 12.2884 17.6558L17.7803 3.58269C17.955 3.13504 18.0424 2.91121 17.9946 2.76819C17.9531 2.64398 17.8556 2.54651 17.7314 2.50501C17.5884 2.45723 17.3646 2.54458 16.9169 2.71927L2.84381 8.21122C2.34791 8.40474 2.09997 8.5015 2.02771 8.64059C1.96507 8.76116 1.96515 8.9047 2.02794 9.0252C2.10036 9.16421 2.34842 9.26067 2.84454 9.45361L8.47621 11.6437C8.57692 11.6829 8.62727 11.7024 8.66967 11.7327C8.70725 11.7595 8.74012 11.7924 8.76692 11.8299C8.79717 11.8723 8.81675 11.9227 8.85591 12.0234Z" stroke="currentColor" stroke-width="1.5" stroke-linecap="round" stroke-linejoin="round"/>
</svg>
