<svg width="21" height="21" viewBox="0 0 21 21" fill="none" xmlns="http://www.w3.org/2000/svg">
<path d="M17.8261 11.4232C18.0296 11.2488 18.1313 11.1616 18.1686 11.0579C18.2013 10.9668 18.2013 10.8672 18.1686 10.7761C18.1313 10.6724 18.0296 10.5852 17.8261 10.4108L10.7672 4.3603C10.417 4.06014 10.2419 3.91006 10.0937 3.90638C9.96483 3.90318 9.84177 3.95978 9.76035 4.05968C9.66667 4.17463 9.66667 4.40524 9.66667 4.86647V8.44585C7.88777 8.75706 6.25966 9.65846 5.04976 11.0119C3.73069 12.4874 3.00103 14.3969 3 16.3761V16.8861C3.87445 15.8327 4.96626 14.9808 6.20063 14.3886C7.28891 13.8665 8.46535 13.5573 9.66667 13.4758V16.9675C9.66667 17.4287 9.66667 17.6594 9.76035 17.7743C9.84177 17.8742 9.96483 17.9308 10.0937 17.9276C10.2419 17.9239 10.417 17.7738 10.7672 17.4737L17.8261 11.4232Z" stroke="currentColor" stroke-width="1.5" stroke-linecap="round" stroke-linejoin="round"/>
</svg>
