<svg width="20" height="21" viewBox="0 0 20 21" fill="none" xmlns="http://www.w3.org/2000/svg">
<path d="M16.8763 15.0834V13.6251C16.8763 12.8197 16.2234 12.1667 15.418 12.1667C14.6126 12.1667 13.9596 12.8197 13.9596 13.6251V15.0834M18.3346 8.83341H1.66797M18.3346 9.66675V7.33342C18.3346 6.4 18.3346 5.93328 18.153 5.57677C17.9932 5.26316 17.7382 5.00819 17.4246 4.84841C17.0681 4.66675 16.6014 4.66675 15.668 4.66675H4.33464C3.40122 4.66675 2.9345 4.66675 2.57798 4.8484C2.26438 5.00819 2.00941 5.26316 1.84962 5.57676C1.66797 5.93328 1.66797 6.39999 1.66797 7.33341V13.6667C1.66797 14.6002 1.66797 15.0669 1.84962 15.4234C2.00941 15.737 2.26438 15.992 2.57798 16.1518C2.9345 16.3334 3.40121 16.3334 4.33464 16.3334H9.16797M13.8346 18.4167H17.0013C17.468 18.4167 17.7014 18.4167 17.8796 18.3259C18.0364 18.246 18.1639 18.1185 18.2438 17.9617C18.3346 17.7835 18.3346 17.5501 18.3346 17.0834V16.4167C18.3346 15.95 18.3346 15.7167 18.2438 15.5384C18.1639 15.3816 18.0364 15.2541 17.8796 15.1742C17.7014 15.0834 17.468 15.0834 17.0013 15.0834H13.8346C13.3679 15.0834 13.1346 15.0834 12.9563 15.1742C12.7995 15.2541 12.672 15.3816 12.5921 15.5384C12.5013 15.7167 12.5013 15.95 12.5013 16.4167V17.0834C12.5013 17.5501 12.5013 17.7835 12.5921 17.9617C12.672 18.1185 12.7995 18.246 12.9563 18.3259C13.1346 18.4167 13.3679 18.4167 13.8346 18.4167Z" stroke="currentColor" stroke-width="1.5" stroke-linecap="round" stroke-linejoin="round"/>
</svg>
