<svg width="20" height="21" viewBox="0 0 20 21" fill="none" xmlns="http://www.w3.org/2000/svg">
<path d="M4.16602 4.83366C4.16602 3.90024 4.16602 3.43353 4.34767 3.07701C4.50746 2.7634 4.76243 2.50844 5.07603 2.34865C5.43255 2.16699 5.89926 2.16699 6.83268 2.16699H13.166C14.0994 2.16699 14.5661 2.16699 14.9227 2.34865C15.2363 2.50844 15.4912 2.7634 15.651 3.07701C15.8327 3.43353 15.8327 3.90024 15.8327 4.83366V16.167C15.8327 17.1004 15.8327 17.5671 15.651 17.9236C15.4912 18.2372 15.2363 18.4922 14.9227 18.652C14.5661 18.8337 14.0994 18.8337 13.166 18.8337H6.83268C5.89926 18.8337 5.43255 18.8337 5.07603 18.652C4.76243 18.4922 4.50746 18.2372 4.34767 17.9236C4.16602 17.5671 4.16602 17.1004 4.16602 16.167V4.83366Z" fill="#10211B"/>
<path d="M8.20117 5.91504H11.8008" stroke="white" stroke-linecap="round"/>
<path d="M10.763 15.6442C10.763 16.0658 10.4213 16.4076 9.99967 16.4076C9.57809 16.4076 9.23633 16.0658 9.23633 15.6442C9.23633 15.2226 9.57809 14.8809 9.99967 14.8809C10.4213 14.8809 10.763 15.2226 10.763 15.6442Z" fill="#0FAE7F"/>
</svg>
