<svg width="25" height="24" viewBox="0 0 25 24" fill="none" xmlns="http://www.w3.org/2000/svg">
<rect x="0.5" width="24" height="24" rx="12" fill="url(#paint0_linear_668_207995)"/>
<circle cx="12.5013" cy="12" r="10.0177" fill="url(#paint1_linear_668_207995)" stroke="#ECC800" stroke-width="0.6"/>
<g filter="url(#filter0_d_668_207995)">
<path d="M12.5011 16.1194C11.8874 16.1194 11.342 16.0142 10.8647 15.804C10.3903 15.5938 10.0153 15.3012 9.7397 14.9262C9.46413 14.5512 9.31783 14.1179 9.30078 13.6265H10.9031C10.9173 13.8622 10.9954 14.0682 11.1374 14.2444C11.2795 14.4176 11.4684 14.5526 11.7042 14.6492C11.94 14.7458 12.2042 14.7941 12.4968 14.7941C12.8093 14.7941 13.0863 14.7401 13.3278 14.6321C13.5692 14.5213 13.7582 14.3679 13.8945 14.1719C14.0309 13.9759 14.0977 13.75 14.0948 13.4944C14.0977 13.2301 14.0295 12.9972 13.8903 12.7955C13.7511 12.5938 13.5494 12.4361 13.2852 12.3225C13.0238 12.2088 12.7085 12.152 12.3391 12.152H11.5678V10.9333H12.3391C12.6431 10.9333 12.9087 10.8807 13.136 10.7756C13.3661 10.6705 13.5465 10.5228 13.6772 10.3324C13.8079 10.1392 13.8718 9.91623 13.869 9.66339C13.8718 9.41623 13.8164 9.20174 13.7028 9.01992C13.592 8.83526 13.4343 8.69179 13.2298 8.58952C13.0281 8.48725 12.7908 8.43611 12.5181 8.43611C12.2511 8.43611 12.0039 8.48441 11.7766 8.581C11.5494 8.67759 11.3661 8.81537 11.2269 8.99435C11.0877 9.17049 11.0138 9.38072 11.0053 9.62503H9.48402C9.49538 9.1364 9.63601 8.70742 9.90589 8.3381C10.1786 7.96594 10.5423 7.67617 10.9968 7.46878C11.4513 7.25856 11.9613 7.15344 12.5266 7.15344C13.109 7.15344 13.6147 7.26282 14.0437 7.48157C14.4755 7.69748 14.8093 7.98867 15.0451 8.35515C15.2809 8.72162 15.3988 9.12645 15.3988 9.56964C15.4016 10.0611 15.2567 10.473 14.9641 10.8054C14.6744 11.1378 14.2937 11.3551 13.8221 11.4574V11.5256C14.4357 11.6108 14.9059 11.8381 15.2326 12.2074C15.5621 12.5739 15.7255 13.0299 15.7227 13.5753C15.7227 14.064 15.5835 14.5015 15.305 14.8878C15.0295 15.2713 14.6488 15.5725 14.163 15.7912C13.68 16.01 13.1261 16.1194 12.5011 16.1194Z" fill="url(#paint2_linear_668_207995)"/>
</g>
<defs>
<filter id="filter0_d_668_207995" x="7.80078" y="6.65344" width="8.42188" height="10.9659" filterUnits="userSpaceOnUse" color-interpolation-filters="sRGB">
<feFlood flood-opacity="0" result="BackgroundImageFix"/>
<feColorMatrix in="SourceAlpha" type="matrix" values="0 0 0 0 0 0 0 0 0 0 0 0 0 0 0 0 0 0 127 0" result="hardAlpha"/>
<feOffset dx="-0.5" dy="0.5"/>
<feGaussianBlur stdDeviation="0.5"/>
<feComposite in2="hardAlpha" operator="out"/>
<feColorMatrix type="matrix" values="0 0 0 0 0.879167 0 0 0 0 0.745057 0 0 0 0 0 0 0 0 1 0"/>
<feBlend mode="normal" in2="BackgroundImageFix" result="effect1_dropShadow_668_207995"/>
<feBlend mode="normal" in="SourceGraphic" in2="effect1_dropShadow_668_207995" result="shape"/>
</filter>
<linearGradient id="paint0_linear_668_207995" x1="5.7179" y1="1.82242" x2="20.745" y2="20.8654" gradientUnits="userSpaceOnUse">
<stop offset="0.248751" stop-color="#FFD700"/>
<stop offset="0.928767" stop-color="#FFF7CC"/>
</linearGradient>
<linearGradient id="paint1_linear_668_207995" x1="5.46014" y1="6.35659" x2="12.5013" y2="22.3177" gradientUnits="userSpaceOnUse">
<stop stop-color="#FEF7CC"/>
<stop offset="0.944248" stop-color="#FED701"/>
</linearGradient>
<linearGradient id="paint2_linear_668_207995" x1="12.5117" y1="7.15344" x2="12.5117" y2="16.1194" gradientUnits="userSpaceOnUse">
<stop offset="0.17796" stop-color="white"/>
<stop offset="1" stop-color="#FFFBE3"/>
</linearGradient>
</defs>
</svg>
