<svg width="25" height="24" viewBox="0 0 25 24" fill="none" xmlns="http://www.w3.org/2000/svg">
<path fill-rule="evenodd" clip-rule="evenodd" d="M22.5 12C22.5 17.5228 18.0228 22 12.5 22C6.97715 22 2.5 17.5228 2.5 12C2.5 6.47715 6.97715 2 12.5 2C18.0228 2 22.5 6.47715 22.5 12ZM12.5 7.25C12.0858 7.25 11.75 7.58579 11.75 8C11.75 8.41421 12.0858 8.75 12.5 8.75H12.51C12.9242 8.75 13.26 8.41421 13.26 8C13.26 7.58579 12.9242 7.25 12.51 7.25H12.5ZM13.25 12C13.25 11.5858 12.9142 11.25 12.5 11.25C12.0858 11.25 11.75 11.5858 11.75 12V16C11.75 16.4142 12.0858 16.75 12.5 16.75C12.9142 16.75 13.25 16.4142 13.25 16V12Z" fill="currentColor"/>
</svg>
