<svg width="25" height="24" viewBox="0 0 25 24" fill="none" xmlns="http://www.w3.org/2000/svg">
<path d="M22.25 10H2.25M11.25 14H6.25M2.25 8.2L2.25 15.8C2.25 16.9201 2.25 17.4802 2.46799 17.908C2.65973 18.2843 2.96569 18.5903 3.34202 18.782C3.76984 19 4.32989 19 5.45 19L19.05 19C20.1701 19 20.7302 19 21.158 18.782C21.5343 18.5903 21.8403 18.2843 22.032 17.908C22.25 17.4802 22.25 16.9201 22.25 15.8V8.2C22.25 7.0799 22.25 6.51984 22.032 6.09202C21.8403 5.7157 21.5343 5.40974 21.158 5.21799C20.7302 5 20.1701 5 19.05 5L5.45 5C4.3299 5 3.76984 5 3.34202 5.21799C2.9657 5.40973 2.65973 5.71569 2.46799 6.09202C2.25 6.51984 2.25 7.07989 2.25 8.2Z" stroke="#8B95AA" stroke-width="1.5" stroke-linecap="round" stroke-linejoin="round"/>
</svg>
