<svg width="24" height="25" viewBox="0 0 24 25" fill="none" xmlns="http://www.w3.org/2000/svg">
<path d="M16 8.49983V5.00048C16 4.16874 16 3.75287 15.8248 3.4973C15.6717 3.27401 15.4346 3.12232 15.1678 3.07691C14.8623 3.02493 14.4847 3.1992 13.7295 3.54775L4.85901 7.64182C4.18551 7.95267 3.84875 8.1081 3.60211 8.34915C3.38406 8.56225 3.21762 8.82238 3.1155 9.10966C3 9.43462 3 9.80551 3 10.5473V15.4998M16.5 14.9998H16.51M3 11.6998L3 18.2998C3 19.4199 3 19.98 3.21799 20.4078C3.40973 20.7841 3.71569 21.0901 4.09202 21.2818C4.51984 21.4998 5.07989 21.4998 6.2 21.4998H17.8C18.9201 21.4998 19.4802 21.4998 19.908 21.2818C20.2843 21.0901 20.5903 20.7841 20.782 20.4078C21 19.98 21 19.4199 21 18.2998V11.6998C21 10.5797 21 10.0197 20.782 9.59185C20.5903 9.21552 20.2843 8.90956 19.908 8.71782C19.4802 8.49983 18.9201 8.49983 17.8 8.49983L6.2 8.49983C5.0799 8.49983 4.51984 8.49983 4.09202 8.71781C3.7157 8.90956 3.40973 9.21552 3.21799 9.59185C3 10.0197 3 10.5797 3 11.6998ZM17 14.9998C17 15.276 16.7761 15.4998 16.5 15.4998C16.2239 15.4998 16 15.276 16 14.9998C16 14.7237 16.2239 14.4998 16.5 14.4998C16.7761 14.4998 17 14.7237 17 14.9998Z" stroke="currentColor" stroke-width="1.5" stroke-linecap="round" stroke-linejoin="round"/>
</svg>
